<?xml version="1.0" standalone="no"?>
<!DOCTYPE svg PUBLIC "-//W3C//DTD SVG 1.1//EN" "http://www.w3.org/Graphics/SVG/1.1/DTD/svg11.dtd" >
<svg>
<metadata>
Created by FontForge 20110222 at Wed Oct  8 12:04:58 2014
 By deploy user
Digitized data (C) 2004 Agfa Monotype Corporation. Neo Sans(TM) is a trademark of Agfa Monotype Corporation and may be registered in certain jurisdictions.  All rights reserved. Neo Sans is designed by Sebastian Lester.
</metadata>
<defs>
<font id="NeoSans-Bold" horiz-adv-x="1188" >
  <font-face 
    font-family="Neo Sans"
    font-weight="700"
    font-stretch="normal"
    units-per-em="2048"
    panose-1="2 0 8 3 5 0 0 2 0 4"
    ascent="1638"
    descent="-410"
    x-height="1057"
    cap-height="1370"
    bbox="-100 -398 1716 1866"
    underline-thickness="163"
    underline-position="2"
    unicode-range="U+000D-FB02"
  />
<missing-glyph horiz-adv-x="748" 
d="M68 0v1365h544v-1365h-544zM136 68h408v1229h-408v-1229z" />
    <glyph glyph-name=".notdef" horiz-adv-x="748" 
d="M68 0v1365h544v-1365h-544zM136 68h408v1229h-408v-1229z" />
    <glyph glyph-name="glyph1" horiz-adv-x="2048" 
 />
    <glyph glyph-name="glyph1" horiz-adv-x="2048" 
 />
    <glyph glyph-name="uni000D" unicode="&#xd;" horiz-adv-x="2048" 
 />
    <glyph glyph-name="space" unicode=" " horiz-adv-x="478" 
 />
    <glyph glyph-name="exclam" unicode="!" horiz-adv-x="503" 
d="M98 1377v2q0 14 12.5 24.5t28.5 10.5h230q14 0 25.5 -10.5t11.5 -24.5v-2l-37 -920q0 -14 -11.5 -26.5t-25.5 -12.5h-156q-15 0 -28 12.5t-13 26.5zM107 37v232q0 15 11 25t26 10h217q35 0 35 -35v-232q0 -15 -10 -26t-25 -11h-217q-14 0 -25.5 11t-11.5 26z" />
    <glyph glyph-name="quotedbl" unicode="&#x22;" horiz-adv-x="869" 
d="M44 958v8.5t2 8.5l100 404q7 35 37 35h218q23 0 23 -21q0 -3 -4 -14l-138 -404q-8 -18 -14 -26.5t-21 -8.5h-186q-16 0 -17 18zM448 958v8.5t2 8.5l99 404q7 35 37 35h220q22 0 22 -21q0 -3 -4 -14l-138 -404q-7 -18 -14 -26.5t-21 -8.5h-187q-16 0 -16 18z" />
    <glyph glyph-name="numbersign" unicode="#" horiz-adv-x="1287" 
d="M53 369v4l23 137q3 23 26 23h153l25 297h-157q-26 0 -25 21v4l22 142q2 9 11 14.5t18 5.5h148l27 318q2 14 11.5 24.5t23.5 10.5h190q13 0 20.5 -9.5t7.5 -22.5v-3l-28 -318h209l29 318q1 14 10.5 24.5t24.5 10.5h188q14 0 21 -9.5t7 -22.5v-3l-30 -318h160
q11 0 21.5 -6.5t10.5 -16.5v-4l-22 -140q-4 -21 -28 -20h-156l-28 -297h154q11 0 22.5 -7.5t11.5 -18.5v-4l-20 -130q-2 -9 -11.5 -18.5t-18.5 -9.5h-154l-27 -310q-1 -14 -9.5 -24.5t-23.5 -10.5h-188q-14 0 -21.5 9t-7.5 23v3l25 310h-208l-27 -310q-2 -14 -10 -24.5
t-24 -10.5h-190q-12 0 -20.5 9t-8.5 23v3l26 310h-157q-26 0 -26 24zM507 533h209l26 297h-207z" />
    <glyph glyph-name="dollar" unicode="$" 
d="M129 1027q0 63 15.5 119t52.5 102t97 78t146 47v159q0 14 11.5 25.5t25.5 11.5h203q15 0 26 -11.5t11 -25.5v-151q81 -6 157 -16.5t112 -18.5q15 -4 25.5 -12t10.5 -24v-182q0 -15 -9.5 -24t-24.5 -9h-3q-87 9 -192 14.5t-200 5.5q-77 0 -109 -23t-32 -75
q0 -35 24.5 -61.5t98.5 -67.5l234 -127q142 -77 196.5 -169t54.5 -205q0 -61 -18.5 -123t-59 -114t-106 -92t-159.5 -60v-174q0 -14 -11 -25t-26 -11h-203q-14 0 -25.5 11t-11.5 25v165q-70 4 -127 13t-107 22q-14 4 -24.5 13t-10.5 24v180q0 15 10.5 25t24.5 10h4
q28 -3 74 -6.5t95.5 -7.5t98 -5.5t81.5 -1.5q95 0 130 32t35 96q0 41 -24.5 70t-96.5 71l-255 151q-64 39 -106.5 79.5t-67.5 84.5t-35 90.5t-10 97.5z" />
    <glyph glyph-name="percent" unicode="%" horiz-adv-x="1546" 
d="M70 925v139q0 162 71 238.5t202 76.5q130 0 201.5 -76.5t71.5 -238.5v-139q0 -162 -71.5 -239.5t-201.5 -77.5q-131 0 -202 77.5t-71 239.5zM255 925q0 -93 23.5 -125.5t64.5 -32.5q40 0 63 32.5t23 125.5v139q0 93 -23 124.5t-63 31.5q-41 0 -64.5 -31.5t-23.5 -124.5
v-139zM260 21q0 7 6 18l766 1294q13 21 22.5 29t23.5 8h190q19 -1 19 -16q0 -12 -8 -21l-767 -1294q-11 -21 -19 -30t-23 -9h-190q-21 0 -20 21zM932 306v139q0 162 71.5 239t201.5 77q131 0 201 -77t70 -239v-139q0 -162 -70 -239.5t-201 -77.5q-130 0 -201.5 77.5
t-71.5 239.5zM1117 306q0 -94 24 -125.5t64 -31.5q41 0 64 31.5t23 125.5v139q0 93 -23 124.5t-64 31.5q-40 0 -64 -31.5t-24 -124.5v-139z" />
    <glyph glyph-name="ampersand" unicode="&#x26;" horiz-adv-x="1349" 
d="M92 345v16q0 120 65.5 204t180.5 154l-16 16q-49 57 -81.5 101.5t-51 82.5t-25 69.5t-6.5 61.5v17q0 69 26 127t79.5 101t136 67t196.5 24q103 0 181 -23t130.5 -65t80 -101t27.5 -130v-17q0 -63 -19.5 -113.5t-52 -90.5t-77 -74.5t-94.5 -65.5l-56 -37l239 -252
q14 37 22.5 89.5t8.5 138.5v15q0 14 9 25.5t25 11.5h171q14 0 24.5 -11t10.5 -26v-15q0 -103 -21 -202.5t-86 -199.5l188 -199q9 -9 9 -22q0 -22 -22 -22h-262q-10 0 -16 2.5t-15 11.5l-55 60q-70 -42 -155 -66t-188 -24q-109 0 -202 19t-162.5 62.5t-108 112.5t-38.5 167z
M398 345q0 -74 55 -111t150 -37q109 0 184 42l-282 301q-67 -40 -87 -82.5t-20 -96.5v-16zM431 1050q0 -18 2.5 -37t13 -40.5t32 -48.5t56.5 -64l14 -14l49 30q42 26 69.5 47t44 40.5t23 40.5t6.5 46v17q0 52 -36 82.5t-109 30.5q-81 0 -123 -30.5t-42 -82.5v-17z" />
    <glyph glyph-name="quotesingle" unicode="'" horiz-adv-x="466" 
d="M44 958v8.5t2 8.5l100 404q7 35 37 35h218q23 0 23 -21q0 -3 -4 -14l-138 -404q-8 -18 -14 -26.5t-21 -8.5h-186q-16 0 -17 18z" />
    <glyph glyph-name="parenleft" unicode="(" horiz-adv-x="665" 
d="M94 489v33q0 135 15.5 249t46 213.5t75.5 188t105 171.5q10 14 26 20t36 6h184q23 0 23 -19q0 -11 -9 -30q-39 -70 -75 -153.5t-64 -183t-44.5 -215t-16.5 -247.5v-33q0 -133 16.5 -248.5t44.5 -214t63.5 -182t75.5 -154.5q9 -18 9 -29q0 -18 -23 -18h-184
q-21 0 -36.5 5.5t-25.5 19.5q-60 83 -105 170.5t-75.5 187t-46 214t-15.5 249.5z" />
    <glyph glyph-name="parenright" unicode=")" horiz-adv-x="665" 
d="M61 -339q0 11 9 29q39 71 75 154.5t63.5 182t44 214t16.5 248.5v33q0 132 -16.5 247.5t-44 215t-63.5 183.5t-75 153q-9 18 -9 30q0 18 22 19h184q21 0 36.5 -6t26.5 -20q60 -83 104.5 -171.5t75 -188t46.5 -214t16 -248.5v-33q0 -135 -16 -249.5t-46.5 -214
t-75.5 -186.5t-104 -171q-10 -14 -26.5 -19.5t-36.5 -5.5h-184q-23 0 -22 18z" />
    <glyph glyph-name="asterisk" unicode="*" horiz-adv-x="882" 
d="M63 1052q0 6 2 10l37 116q5 18 23 18q5 0 10 -1t11 -3l211 -70l-5 220q0 14 7.5 26.5t22.5 12.5h121q15 0 21.5 -12.5t6.5 -26.5l-2 -220l208 70q5 2 10 3t11 1q18 0 23 -18l37 -116q2 -4 2 -12q0 -18 -27 -27l-213 -63l134 -181q9 -14 9 -25q0 -14 -11 -22l-96 -70
q-8 -6 -17 -6q-16 0 -29 19l-127 184l-128 -184q-13 -18 -30 -19q-7 0 -16 6l-98 70q-13 7 -13 22q0 6 4 12t7 13l133 181l-210 63q-30 9 -29 29z" />
    <glyph glyph-name="plus" unicode="+" 
d="M132 638v166q0 14 11.5 21.5t25.5 7.5h313v314q0 14 7 25.5t21 11.5h167q14 0 21.5 -11.5t7.5 -25.5v-314h314q14 0 25.5 -7.5t11.5 -21.5v-166q0 -14 -11.5 -22t-25.5 -8h-314v-311q0 -14 -7.5 -25.5t-21.5 -11.5h-167q-14 0 -21 11t-7 26v311h-313q-14 0 -25.5 7.5
t-11.5 22.5z" />
    <glyph glyph-name="comma" unicode="," horiz-adv-x="504" 
d="M16 -153q0 4 1 4.5t1 4.5l119 413q9 35 37 35h224q28 0 28 -22q0 -6 -4 -13l-177 -413q-7 -14 -13.5 -25.5t-21.5 -11.5h-162q-13 0 -22.5 8.5t-9.5 19.5z" />
    <glyph glyph-name="hyphen" unicode="-" horiz-adv-x="556" 
d="M63 487v147q0 15 11 25t26 10h357q15 0 26 -10t11 -25v-147q0 -15 -11 -24t-26 -9h-357q-14 0 -25.5 9t-11.5 24z" />
    <glyph glyph-name="period" unicode="." horiz-adv-x="504" 
d="M107 37v232q0 15 11.5 25t27.5 10h215q14 0 25.5 -10t11.5 -25v-232q0 -15 -11 -26t-26 -11h-215q-15 0 -27 11t-12 26z" />
    <glyph glyph-name="slash" unicode="/" horiz-adv-x="746" 
d="M24 32q0 1 1 3t1 4l391 1294q3 14 12 25.5t25 11.5h234q12 0 22.5 -8.5t10.5 -21.5q0 -2 -1 -3t-1 -4l-389 -1294q-3 -15 -12.5 -27t-24.5 -12h-234q-14 0 -24.5 9t-10.5 23z" />
    <glyph glyph-name="zero" unicode="0" 
d="M98 605v158q0 166 33 284t97 193.5t155.5 110.5t209.5 35t210.5 -35t156 -110.5t97.5 -193.5t34 -284v-158q0 -166 -34 -284.5t-97.5 -193t-155.5 -109t-211 -34.5q-118 0 -209.5 34.5t-155.5 109t-97 192.5t-33 285zM413 605q0 -109 13.5 -179t38 -110t57 -55.5
t71.5 -15.5t72 15.5t58 55.5t39 110t14 179v158q0 109 -14 179t-39 110.5t-58 56t-72 15.5t-71.5 -15.5t-57 -56t-38 -110.5t-13.5 -179v-158z" />
    <glyph glyph-name="one" unicode="1" 
d="M220 988v210q0 18 18 26l300 138q16 7 42 8h166q35 0 35 -35v-1298q0 -15 -10 -26t-25 -11h-241q-15 0 -26 11t-11 26v1017l-206 -85q-13 -5 -23 -5q-20 0 -19 24z" />
    <glyph glyph-name="two" unicode="2" 
d="M140 37v188q0 153 72.5 272.5t178.5 195.5l170 120q61 42 97.5 69t56.5 48t26.5 42.5t6.5 54.5q0 59 -41.5 85t-153.5 26q-85 0 -182 -8t-181 -17h-4q-14 0 -23.5 11.5t-9.5 25.5v144q0 15 10.5 23.5t24.5 11.5q78 25 183.5 41t208.5 16q255 0 362.5 -87.5t107.5 -264.5
q0 -112 -54 -194t-157 -152l-157 -106q-59 -38 -107.5 -74t-84.5 -73t-55.5 -77.5t-19.5 -88.5v-7h582q15 0 26 -10.5t11 -24.5v-190q0 -15 -11 -26t-26 -11h-820q-14 0 -25.5 11t-11.5 26z" />
    <glyph glyph-name="three" unicode="3" 
d="M146 70v148q0 14 9 23.5t24 9.5h4q98 -9 194 -13t172 -4q100 0 141.5 39.5t41.5 117.5v33q0 31 -6.5 59.5t-23 50.5t-46.5 35t-74 13h-324q-14 0 -24.5 11.5t-10.5 25.5v157q0 35 35 35h317q44 0 74.5 14t49 36t26 51.5t7.5 58.5v26q0 32 -8 57.5t-28.5 43t-56.5 28
t-90 10.5q-48 0 -91 -2.5t-85.5 -5t-88 -6t-98.5 -9.5h-3q-15 0 -24.5 9t-9.5 25v147q0 15 11 23.5t26 11.5q72 23 170 40t206 17q113 0 202 -20t150.5 -65t95 -117t33.5 -176v-25q0 -81 -45 -161t-119 -122q78 -40 121 -113t43 -163v-33q0 -106 -35 -183.5t-98.5 -126.5
t-152 -73t-195.5 -24q-108 0 -208.5 14.5t-172.5 36.5q-15 4 -25 12t-10 23z" />
    <glyph glyph-name="four" unicode="4" 
d="M74 345v179q0 28 20 56l583 764q9 12 19.5 19t27.5 7h198q14 0 25 -11.5t11 -25.5v-782h122q14 0 25.5 -11t11.5 -26v-169q0 -15 -11 -26t-26 -11h-122v-271q0 -15 -10 -26t-25 -11h-244q-15 0 -25 11t-10 26v271h-533q-15 0 -26 11t-11 26zM346 559q0 -7 11 -8h295v406
q0 11 -7 11q-1 0 -5 -4l-290 -394q-4 -4 -4 -11z" />
    <glyph glyph-name="five" unicode="5" 
d="M146 77v146q0 15 9 24t24 9h4q44 -5 90.5 -9t92 -6.5t84.5 -4.5t64 -2q66 0 107 14t64.5 39.5t32 62.5t8.5 85v15q0 46 -12 78.5t-42 52.5t-80 29t-128 9h-285q-11 0 -18.5 8.5t-7.5 17.5v2l57 688q2 14 12 24.5t25 10.5h717q14 0 25.5 -10.5t11.5 -24.5v-185
q0 -14 -11.5 -24.5t-25.5 -10.5h-501l-23 -255h54q120 0 220 -19t174 -66t114.5 -126t40.5 -199v-15q0 -220 -127 -335.5t-371 -115.5q-88 0 -184.5 13.5t-177.5 39.5q-15 3 -26 11.5t-11 28.5z" />
    <glyph glyph-name="six" unicode="6" 
d="M105 526v281q0 157 36 267t102.5 178.5t161.5 101t212 32.5q125 0 215.5 -11t148.5 -26q41 -9 41 -40v-161q0 -38 -34 -38h-10q-33 5 -74.5 9.5t-85.5 8t-89 6t-85 2.5q-122 0 -176.5 -58t-54.5 -211v-14q37 7 98 15t119 8q94 0 176 -21.5t144.5 -69.5t98.5 -127t36 -194
v-12q0 -106 -31 -192t-93 -147.5t-152 -95t-210 -33.5q-110 0 -201.5 33t-156.5 100t-100.5 168.5t-35.5 240.5zM413 526q0 -94 13.5 -153.5t38.5 -92.5t59.5 -45t74.5 -12q39 0 71 10t56.5 36t38 70t13.5 113v12q0 57 -16 94.5t-42.5 59.5t-62.5 30t-77 8q-18 0 -40 -2
t-45 -4.5t-44.5 -5t-37.5 -6.5v-112z" />
    <glyph glyph-name="seven" unicode="7" 
d="M146 1150v185q0 14 11.5 24.5t26.5 10.5h799q26 0 44 -17.5t18 -43.5v-135q0 -18 -8 -38.5t-22 -46.5l-484 -1054q-16 -35 -46 -35h-253q-33 0 -33 22q0 10 5 20l502 1053q1 4 1 9q0 11 -12 11h-511q-14 0 -26 10.5t-12 24.5z" />
    <glyph glyph-name="eight" unicode="8" 
d="M95 392v25q0 91 44 167t114 128q-149 103 -149 276v20q0 98 33.5 168.5t96.5 117t152 69.5t198 23h21q109 0 198 -23t153 -69.5t97.5 -117t33.5 -168.5v-20q0 -174 -151 -276q70 -51 113.5 -127.5t43.5 -167.5v-25q0 -100 -35.5 -176t-100.5 -127.5t-154 -78t-198 -26.5
h-21q-109 0 -198 26.5t-154 78t-101 128t-36 175.5zM398 978q0 -70 40.5 -115t127.5 -45h57q86 0 127 45.5t41 114.5v10q0 74 -42.5 121t-143.5 47h-21q-102 0 -144 -47t-42 -121v-10zM400 401q0 -81 46 -133t138 -52h21q92 0 138 52t46 133v19q0 32 -9.5 64t-28.5 57
t-50.5 41t-77.5 16h-57q-46 0 -77.5 -16t-51 -41t-28.5 -57t-9 -64v-19z" />
    <glyph glyph-name="nine" unicode="9" 
d="M105 905v13q0 105 31 191.5t93.5 147.5t153 95t208.5 34q111 0 202.5 -33.5t156.5 -100.5t100 -168t35 -240v-282q0 -156 -36 -266t-102 -179t-161 -101t-213 -32q-125 0 -215.5 10.5t-147.5 26.5q-41 11 -41 40v160q0 39 33 39h10q34 -5 75 -10t85.5 -8.5t89.5 -5.5
t85 -2q122 0 176.5 58t54.5 211v13q-37 -8 -98 -15t-119 -7q-94 0 -176.5 21t-145 70t-98.5 127.5t-36 192.5zM413 905q0 -56 16 -93.5t42.5 -59.5t62.5 -30t76 -8q18 0 40.5 1.5t45.5 4.5t44 6.5t38 5.5v112q0 94 -13.5 153.5t-39 92t-59.5 45t-75 12.5q-38 0 -70 -10.5
t-56.5 -36t-38 -70t-13.5 -112.5v-13z" />
    <glyph glyph-name="colon" unicode=":" horiz-adv-x="506" 
d="M107 37v232q0 15 11.5 25t27.5 10h215q14 0 25.5 -10t11.5 -25v-232q0 -15 -11 -26t-26 -11h-215q-15 0 -27 11t-12 26zM107 741v232q0 14 11.5 25.5t27.5 11.5h215q14 0 25.5 -11t11.5 -26v-232q0 -15 -11 -25t-26 -10h-215q-15 0 -27 10t-12 25z" />
    <glyph glyph-name="semicolon" unicode=";" horiz-adv-x="506" 
d="M-11 -157q0 4 1 5t1 4l118 414q9 35 37 35h225q27 0 27 -23q0 -5 -4 -12l-174 -414q-8 -14 -15.5 -25t-21.5 -11h-162q-13 0 -22.5 8.5t-9.5 18.5zM107 741v232q0 14 11 25.5t26 11.5h215q15 0 27 -11t12 -26v-232q0 -15 -12 -25t-27 -10h-215q-14 0 -25.5 10t-11.5 25z
" />
    <glyph glyph-name="less" unicode="&#x3c;" 
d="M199 721q0 35 37 66l429 381q9 9 19.5 15t24.5 6h257q22 0 22 -24q0 -11 -12 -22l-476 -422l476 -422q12 -12 12 -23q0 -24 -22 -23h-257q-14 0 -24 5.5t-20 14.5l-429 381q-37 32 -37 67z" />
    <glyph glyph-name="equal" unicode="=" 
d="M171 401v167q0 14 11.5 22t25.5 8h773q14 0 25 -8t11 -22v-167q0 -14 -11 -21t-25 -7h-773q-14 0 -25.5 7t-11.5 21zM171 874v166q0 14 11.5 21.5t25.5 7.5h773q14 0 25 -7.5t11 -21.5v-166q0 -14 -11 -22t-25 -8h-773q-14 0 -25.5 7.5t-11.5 22.5z" />
    <glyph glyph-name="greater" unicode="&#x3e;" 
d="M199 276q0 11 11 23l478 422l-478 422q-11 11 -11 22q0 24 22 24h256q14 0 24.5 -5.5t20.5 -15.5l428 -381q20 -17 29 -31t9 -35t-9.5 -36t-28.5 -31l-428 -381q-9 -9 -19.5 -14.5t-25.5 -5.5h-256q-22 0 -22 23z" />
    <glyph glyph-name="question" unicode="?" horiz-adv-x="882" 
d="M63 1156v163q0 21 6.5 32t25.5 17q60 18 139 28.5t157 10.5q95 0 170 -16t126.5 -52t79.5 -94t28 -144v-32q0 -63 -32.5 -126.5t-110.5 -163.5l-82 -106q-32 -40 -52 -66.5t-31.5 -44t-16 -30t-4.5 -27.5v-51q0 -17 -15 -26.5t-29 -9.5h-184q-15 0 -25.5 11t-10.5 26v50
q0 37 2 66.5t10.5 57t24.5 56.5t41 63l89 117q51 68 68 106.5t17 78.5v19q0 32 -21.5 50.5t-69.5 18.5q-72 0 -134.5 -6t-128.5 -15h-6q-32 0 -31 39zM192 35v232q0 15 11 26t26 11h217q15 0 26 -11t11 -26v-232q0 -14 -11 -24.5t-26 -10.5h-217q-15 0 -26 10.5t-11 24.5z
" />
    <glyph glyph-name="at" unicode="@" horiz-adv-x="1426" 
d="M63 280v5v26t2 28l29 305q12 132 64 238t138.5 181t208 115.5t273.5 40.5q149 0 259 -46.5t183.5 -124t109.5 -177t36 -206.5q0 -165 -51 -277t-141 -179t-216 -95.5t-276 -28.5q-70 0 -129 16.5t-101 49.5t-66.5 83.5t-24.5 117.5q0 9 1 16.5t1 16.5l17 214
q12 162 111 235t253 73q60 0 123.5 -7.5t122.5 -20.5q44 -9 44 -49v-8l-51 -551q66 11 110.5 44t71.5 85t39.5 119t12.5 146q0 83 -26 159.5t-79.5 134.5t-137.5 93t-198 35q-243 0 -377.5 -117t-155.5 -336l-27 -295q-2 -16 -3 -31.5t-1 -31.5q0 -79 27.5 -146t85 -116
t143.5 -75.5t202 -26.5q83 0 153.5 7t118.5 7h2h7q15 0 15 -18v-72q0 -22 -22 -24q-48 -6 -117 -12t-157 -6q-132 0 -243.5 31t-192.5 92.5t-126 153t-45 209.5zM568 356q0 -54 28.5 -75t98.5 -21h40t37 2l42 461q-51 9 -93 9q-67 0 -94.5 -31t-36.5 -110l-20 -204
q-2 -9 -2 -16.5v-14.5z" />
    <glyph glyph-name="A" unicode="A" horiz-adv-x="1233" 
d="M35 30q0 2 1 3.5t1 5.5l274 1143q17 66 48.5 106.5t72.5 62t89.5 28.5t95.5 7q48 0 95.5 -7t88.5 -28.5t72.5 -62.5t48.5 -106l274 -1143q0 -4 1 -5.5t1 -3.5q0 -30 -32 -30h-257q-14 0 -23.5 9t-13.5 24l-66 303h-378l-67 -303q-4 -14 -13 -23.5t-24 -9.5h-257
q-32 0 -32 30zM479 588h275l-112 509q-4 15 -8 21t-17 6q-20 0 -26 -27z" />
    <glyph glyph-name="B" unicode="B" horiz-adv-x="1233" 
d="M129 125v1121q0 63 22.5 86.5t75.5 33.5q24 4 61.5 7.5t83 6t93 4.5t91.5 2q131 0 238 -19.5t183.5 -63.5t119 -117.5t42.5 -184.5v-33q0 -90 -40.5 -162t-113.5 -109q73 -37 118 -107t45 -166v-28q0 -122 -45.5 -201t-124.5 -126t-184.5 -66t-225.5 -19q-46 0 -94 1.5
t-93 4.5t-84 6.5t-67 8.5q-54 9 -77.5 33.5t-23.5 86.5zM440 244h32.5t44.5 -1.5t44 -1.5h30q143 0 197 42.5t54 120.5v20q0 66 -42 115t-153 49h-207v-344zM440 807h207q55 0 91 12.5t57 31.5t30.5 45.5t9.5 56.5v28q0 76 -56 111.5t-199 35.5h-29.5h-40.5t-40.5 -1
t-29.5 -1v-319z" />
    <glyph glyph-name="C" unicode="C" horiz-adv-x="1033" 
d="M98 570v232q0 164 46 276.5t121.5 181t174 97.5t204.5 29q98 0 171 -11t103 -21q21 -5 30.5 -12t9.5 -28v-178q0 -37 -35 -37h-5q-53 3 -124 8.5t-149 5.5q-47 0 -89 -14t-73 -50t-48.5 -95.5t-17.5 -151.5v-232q0 -92 17.5 -152.5t48.5 -96.5t73 -49.5t89 -13.5
q78 0 149 5.5t124 9.5h5q35 0 35 -37v-179q0 -21 -10 -28.5t-30 -14.5q-30 -9 -103.5 -19.5t-170.5 -10.5q-106 0 -204.5 29t-174 98.5t-121.5 182t-46 276.5z" />
    <glyph glyph-name="D" unicode="D" horiz-adv-x="1256" 
d="M129 76v1218q0 32 14 46t40 18q28 6 71 10.5t95 8.5t110.5 6.5t115.5 2.5q139 0 247.5 -36t184 -109t116 -182t40.5 -255v-238q0 -146 -40.5 -255.5t-116 -182.5t-184 -108.5t-247.5 -35.5q-57 0 -115.5 2.5t-110.5 6t-95.5 8t-70.5 10.5q-26 3 -40 18t-14 47zM445 255
q20 -2 57.5 -3t72.5 -1q63 0 112.5 13.5t85.5 49.5t55.5 97t19.5 155v238q0 93 -19.5 154.5t-55.5 97t-85.5 49.5t-112.5 14q-35 0 -73 -1t-57 -3v-860z" />
    <glyph glyph-name="E" unicode="E" horiz-adv-x="1068" 
d="M123 380v612q0 125 37 202.5t98.5 119.5t144 57t170.5 15q76 0 131.5 -2.5t97.5 -6.5t72.5 -7.5t54.5 -7.5q37 -6 37 -36v-172q0 -15 -11 -26t-26 -11h-375q-64 0 -91 -26.5t-27 -98.5v-168h478q15 0 26 -11t11 -26v-175q0 -14 -11 -25.5t-26 -11.5h-478v-195
q0 -72 27 -98.5t91 -26.5h375q14 0 25.5 -11.5t11.5 -25.5v-172q0 -33 -37 -39q-48 -7 -128 -15t-229 -8q-89 0 -170.5 14.5t-143 58t-98.5 121t-37 202.5z" />
    <glyph glyph-name="F" unicode="F" horiz-adv-x="1070" 
d="M123 37v953q0 125 37 202.5t98.5 119.5t144 57t170.5 15q76 0 131.5 -2.5t97.5 -6t72.5 -7.5t54.5 -8q37 -6 37 -37v-171q0 -14 -11 -25.5t-26 -11.5h-375q-64 0 -91 -26.5t-27 -98.5v-166h478q15 0 26 -11t11 -26v-175q0 -14 -11 -25.5t-26 -11.5h-478v-538
q0 -15 -10.5 -26t-25.5 -11h-240q-14 0 -25.5 11t-11.5 26z" />
    <glyph glyph-name="G" unicode="G" 
d="M92 570v228q0 178 50 291t130 179.5t180.5 92t199.5 25.5q139 0 236.5 -16t149.5 -26q31 -6 31 -28v-196q0 -14 -7.5 -18.5t-20.5 -4.5h-5q-67 4 -166.5 9.5t-217.5 5.5q-54 0 -99.5 -15t-76.5 -51t-48 -97t-17 -151v-230q0 -96 19.5 -157t49.5 -96t67 -47.5t70 -12.5
q76 0 143 5v424q0 14 9.5 25.5t25.5 11.5h235q15 0 26 -11.5t11 -25.5v-619q0 -35 -37 -43q-75 -14 -174.5 -26t-238.5 -12q-79 0 -170 25.5t-170.5 91.5t-132 179.5t-52.5 289.5z" />
    <glyph glyph-name="H" unicode="H" horiz-adv-x="1342" 
d="M129 37v1298q0 14 11 24.5t26 10.5h242q14 0 25.5 -10.5t11.5 -24.5v-491h454v491q0 14 11.5 24.5t25.5 10.5h242q14 0 25.5 -10.5t11.5 -24.5v-1298q0 -15 -11.5 -26t-25.5 -11h-242q-14 0 -25.5 11t-11.5 26v533h-454v-533q0 -15 -11.5 -26t-25.5 -11h-242
q-15 0 -26 11t-11 26z" />
    <glyph glyph-name="I" unicode="I" horiz-adv-x="572" 
d="M129 37v1298q0 35 33 35h248q35 0 35 -35v-1298q0 -15 -10.5 -26t-24.5 -11h-248q-14 0 -23.5 11t-9.5 26z" />
    <glyph glyph-name="J" unicode="J" horiz-adv-x="572" 
d="M-32 -104q0 10 5.5 18.5t15.5 8.5h92q31 0 39.5 15.5t8.5 50.5v1346q0 14 11 24.5t26 10.5h242q14 0 25.5 -10.5t11.5 -24.5v-1346q0 -93 -26.5 -155.5t-70.5 -98.5t-104 -50.5t-130 -14.5q-31 0 -56 2t-62 6q-28 3 -28 30v188z" />
    <glyph glyph-name="K" unicode="K" horiz-adv-x="1249" 
d="M129 37v1298q0 14 11 24.5t26 10.5h242q14 0 25.5 -10.5t11.5 -24.5v-587l405 599q14 23 40 23h283q29 0 29 -21q0 -11 -10 -26l-438 -623l440 -661q8 -9 8 -21q0 -18 -26 -18h-317q-17 0 -25 7t-16 19l-373 608v-597q0 -15 -11.5 -26t-25.5 -11h-242q-15 0 -26 11
t-11 26z" />
    <glyph glyph-name="L" unicode="L" horiz-adv-x="955" 
d="M129 380v953q0 14 11 25.5t26 11.5h242q14 0 25.5 -11.5t11.5 -25.5v-953q0 -72 26.5 -98.5t90.5 -26.5h317q15 0 26 -11.5t11 -25.5v-172q0 -32 -37 -39q-22 -5 -58 -8.5t-77.5 -7.5t-84.5 -5.5t-80 -1.5q-89 0 -171 14.5t-144 58t-98.5 121t-36.5 202.5z" />
    <glyph glyph-name="M" unicode="M" horiz-adv-x="1503" 
d="M129 26v1281q0 29 18.5 46t47.5 17h174q55 0 81 -51l282 -524q12 -25 20 -25q9 0 20 25l282 524q26 50 82 51h173q29 0 47.5 -17.5t18.5 -47.5v-1279q0 -14 -10.5 -20t-20.5 -6h-243q-13 0 -21.5 11t-8.5 26v769q0 14 -9 14q-7 0 -15 -13l-166 -304q-18 -31 -55 -31h-147
q-37 0 -56 31l-166 304q-7 13 -14 13q-9 0 -10 -14v-769q0 -15 -8 -26t-21 -11h-244q-11 0 -21 5.5t-10 20.5z" />
    <glyph glyph-name="N" unicode="N" horiz-adv-x="1342" 
d="M129 37v1263q0 29 20 49.5t50 20.5h186q28 0 44.5 -14t33.5 -44l436 -759q9 -15 15 -15q9 0 9 16v781q0 14 11.5 24.5t25.5 10.5h218q14 0 25.5 -10.5t11.5 -24.5v-1265q0 -30 -21 -50t-51 -20h-181q-30 0 -52 10.5t-43 46.5l-421 726q-9 14 -17 15q-9 0 -9 -15v-746
q0 -15 -11 -26t-26 -11h-217q-15 0 -26 11t-11 26z" />
    <glyph glyph-name="O" unicode="O" horiz-adv-x="1286" 
d="M98 575v220q0 160 42.5 272.5t116 183t173 103t214.5 32.5q114 0 213.5 -32.5t173 -103t116 -183t42.5 -272.5v-220q0 -160 -42.5 -272.5t-116 -183.5t-173 -103t-213.5 -32q-115 0 -214.5 32t-173 103t-116 183.5t-42.5 272.5zM417 575q0 -167 55 -241t172 -74
q116 0 172 74t56 241v220q0 167 -56 241t-172 74q-117 0 -172 -74t-55 -241v-220z" />
    <glyph glyph-name="P" unicode="P" horiz-adv-x="1199" 
d="M129 35v1239q0 47 20 63.5t63 24.5q71 10 173 17t201 7q105 0 204.5 -20t177 -72t124.5 -136.5t47 -215.5v-17q0 -129 -47 -214.5t-124.5 -137t-176 -73t-201.5 -21.5q-34 0 -74.5 2t-75.5 4v-448q0 -15 -11 -26t-25 -11h-238q-15 0 -26 10.5t-11 24.5zM440 742
q7 0 28.5 -0.5t46.5 -1.5t46 -1h29q123 0 179.5 46.5t56.5 139.5v17q0 100 -60 141t-176 41q-10 0 -31 -1t-45 -2t-44 -1.5t-30 -0.5v-377z" />
    <glyph glyph-name="Q" unicode="Q" horiz-adv-x="1286" 
d="M98 575v220q0 160 42.5 272.5t116 183t173 103t214.5 32.5q114 0 213.5 -32.5t173 -103t116 -183t42.5 -272.5v-220q0 -132 -29.5 -232t-82 -170.5t-125.5 -113.5t-159 -61v-37q0 -29 12.5 -37.5t33.5 -8.5h165q21 0 32.5 -7.5t11.5 -21.5v-152q0 -29 -42 -40
q-38 -9 -94.5 -16.5t-109.5 -7.5q-63 0 -119.5 14.5t-97.5 49t-65 89.5t-24 137v38q-86 18 -159 61t-126.5 112.5t-83 170.5t-29.5 233zM417 575q0 -167 55 -241t172 -74q116 0 172 74t56 241v220q0 167 -56 241t-172 74q-117 0 -172 -74t-55 -241v-220z" />
    <glyph glyph-name="R" unicode="R" horiz-adv-x="1252" 
d="M129 37v1237q0 47 20 63.5t63 24.5q32 5 76 9t93.5 7.5t102 5.5t102.5 2q118 0 219.5 -21t176.5 -72t117 -134t42 -204v-24q0 -148 -68.5 -238t-168.5 -131l278 -520q5 -10 5 -20q0 -22 -28 -22h-281q-15 0 -22.5 11t-14.5 26l-248 466l-20 -2q-29 0 -67 2t-63 2v-468
q0 -15 -11.5 -26t-25.5 -11h-240q-15 0 -26 11t-11 26zM443 760q7 0 25.5 -1t39.5 -2t39.5 -1h25.5q72 0 120.5 10t78.5 30t43 54.5t13 80.5v24q0 85 -63 124.5t-179 39.5q-9 0 -30 -1t-43.5 -2t-41.5 -2t-28 -1v-353z" />
    <glyph glyph-name="S" unicode="S" horiz-adv-x="1083" 
d="M77 1027q0 75 23 141.5t78.5 114.5t146 75.5t224.5 27.5q49 0 108 -3.5t112 -9t99 -13t72 -14.5q10 -4 19 -11t9 -23v-186q0 -13 -6.5 -22t-25.5 -9h-4q-18 2 -64 4.5t-103.5 6.5t-116 6.5t-106.5 2.5q-79 0 -111.5 -24t-32.5 -74q0 -39 25 -63.5t99 -65.5l236 -127
q144 -77 196 -169t52 -205q0 -74 -25.5 -146t-85.5 -129t-155.5 -92.5t-236.5 -35.5q-111 0 -194.5 10.5t-153.5 29.5q-15 4 -26 13t-11 24v180q0 21 9.5 28t23.5 7h6q27 -2 76 -6t100.5 -7t98.5 -5.5t75 -2.5q95 0 129 31t34 97q0 41 -24.5 70t-96.5 71l-254 151
q-65 39 -106 79.5t-66 84.5t-35.5 90.5t-10.5 97.5z" />
    <glyph glyph-name="T" unicode="T" horiz-adv-x="1081" 
d="M46 1145v190q0 14 11 24.5t26 10.5h914q15 0 27 -10.5t12 -24.5v-190q0 -15 -12 -25t-27 -10h-299v-1073q0 -15 -10.5 -26t-25.5 -11h-242q-14 0 -25.5 11t-11.5 26v1073h-300q-15 0 -26 10t-11 25z" />
    <glyph glyph-name="U" unicode="U" horiz-adv-x="1310" 
d="M123 514v821q0 14 11.5 24.5t25.5 10.5h241q15 0 26 -10.5t11 -24.5v-821q0 -140 46.5 -203.5t169.5 -63.5q63 0 104.5 15.5t66.5 48t36 83.5t11 120v821q0 14 11 24.5t26 10.5h239q15 0 27 -10.5t12 -24.5v-821q0 -157 -42.5 -260t-114.5 -162.5t-168.5 -83.5
t-207.5 -24q-110 0 -207 24t-169 83.5t-113.5 162.5t-41.5 260z" />
    <glyph glyph-name="V" unicode="V" horiz-adv-x="1263" 
d="M50 1340q0 13 9 21.5t24 8.5h256q15 0 24.5 -9.5t12.5 -24.5l231 -1063q5 -28 25 -28t26 28l230 1063q4 15 12.5 24.5t22.5 9.5h259q31 0 31 -30q0 -2 -1 -3.5t-1 -5.5l-275 -1143q-16 -66 -47.5 -107t-73 -62t-88.5 -28t-95 -7t-95.5 7t-89 28t-73 62t-48.5 107
l-275 1143q0 4 -0.5 4.5t-0.5 4.5z" />
    <glyph glyph-name="W" unicode="W" horiz-adv-x="1638" 
d="M53 1342v4q0 14 9.5 19t20.5 5h251q26 0 29 -35l105 -989q2 -24 11 -24q7 0 13 24l133 507q14 53 45.5 71t68.5 18h183q36 0 68 -17.5t46 -71.5l132 -507q6 -24 14 -24q9 0 10 24l106 989q3 35 30 35h250q10 0 19.5 -5t9.5 -19v-4l-171 -1207q-11 -81 -53.5 -110.5
t-116.5 -29.5h-105q-61 0 -106 27.5t-63 97.5l-146 550q-4 11 -6.5 13.5t-9.5 2.5t-9.5 -2t-6.5 -14l-145 -550q-18 -70 -63 -97.5t-106 -27.5h-106q-74 0 -116 29t-53 111z" />
    <glyph glyph-name="X" unicode="X" horiz-adv-x="1295" 
d="M67 1346q0 8 8 16t19 8h297q14 0 25.5 -11.5t19.5 -23.5l229 -373l207 373q7 12 19.5 23.5t26.5 11.5h273q11 0 19.5 -8t8.5 -16q0 -4 -4 -11l-380 -651l396 -647q6 -12 6 -19q0 -18 -24 -18h-293q-18 0 -28.5 6.5t-19.5 21.5l-240 389l-215 -380q-9 -16 -20.5 -26.5
t-25.5 -10.5h-273q-28 0 -28 24q0 6 4 13l385 665l-389 633q-3 7 -3 11z" />
    <glyph glyph-name="Y" unicode="Y" horiz-adv-x="1192" 
d="M37 1342q0 11 7 19.5t23 8.5h265q14 0 23.5 -9.5t13.5 -22.5l199 -520q7 -18 12.5 -22.5t15.5 -4.5q9 0 14.5 4.5t12.5 22.5l199 520q3 13 12.5 22.5t24.5 9.5h265q14 0 22 -8.5t8 -19.5q0 -9 -2 -13l-278 -638q-28 -65 -57.5 -96t-62.5 -46v-512q0 -15 -11 -26t-26 -11
h-242q-14 0 -25.5 11t-11.5 26v512q-33 14 -63 45.5t-58 96.5l-278 638q-2 4 -2 13z" />
    <glyph glyph-name="Z" unicode="Z" horiz-adv-x="1133" 
d="M92 57v147q0 21 6 38.5t22 42.5l514 779q8 9 8 18q0 14 -21 15h-459q-14 0 -25.5 10t-11.5 24v204q0 14 11.5 24.5t25.5 10.5h795q29 0 51 -13t22 -39q2 -6 2 -13v-31v-82q0 -20 -2 -42q0 -24 -15 -48l-519 -796q-9 -13 -9 -21q0 -12 20 -12h497q15 0 26 -9t11 -25v-202
q0 -15 -10.5 -26t-26.5 -11h-837q-31 0 -53 13t-22 44z" />
    <glyph glyph-name="bracketleft" unicode="[" horiz-adv-x="688" 
d="M116 -322v1657q0 14 8 24.5t24 10.5h448q14 0 25 -11.5t11 -25.5v-160q0 -15 -11 -26t-25 -11h-178v-1259h180q14 0 25 -11.5t11 -25.5v-160q0 -15 -11 -26t-25 -11h-450q-15 0 -23.5 9.5t-8.5 25.5z" />
    <glyph glyph-name="backslash" unicode="\" horiz-adv-x="746" 
d="M24 1340q0 13 10 21.5t25 8.5h233q14 0 24 -11.5t14 -25.5l391 -1303q0 -2 1 -4t1 -4q0 -12 -10.5 -21.5t-24.5 -9.5h-234q-15 0 -23.5 11.5t-12.5 27.5l-392 1303q0 2 -1 3.5t-1 3.5z" />
    <glyph glyph-name="bracketright" unicode="]" horiz-adv-x="688" 
d="M55 -160q0 14 11 25.5t26 11.5h179v1259h-177q-15 0 -26 10.5t-11 26.5v160q0 14 11 25.5t26 11.5h448q14 0 22.5 -10.5t8.5 -24.5v-1657q0 -15 -8.5 -25t-22.5 -10h-450q-15 0 -26 10.5t-11 26.5v160z" />
    <glyph glyph-name="asciicircum" unicode="^" 
d="M129 1058q0 9 10 22l204 273q14 20 25.5 26.5t37.5 6.5h379q26 0 37 -6.5t26 -26.5l204 -273q10 -13 10 -22q0 -16 -22 -17h-240q-24 0 -33 6.5t-25 21.5l-146 164l-148 -164q-14 -14 -23.5 -21t-33.5 -7h-240q-22 0 -22 17z" />
    <glyph glyph-name="underscore" unicode="_" horiz-adv-x="996" 
d="M-57 -102q0 15 11 22.5t25 7.5h1041q14 0 25.5 -7t11.5 -23v-88q0 -14 -11.5 -22t-25.5 -8h-1041q-14 0 -25 8t-11 22v88z" />
    <glyph glyph-name="grave" unicode="`" horiz-adv-x="816" 
d="M50 1423q0 13 20 13h243q21 0 29 -6.5t21 -21.5l170 -216q7 -8 7 -18q0 -12 -16 -13h-198q-18 0 -25.5 6t-18.5 17l-225 224q-7 8 -7 15z" />
    <glyph glyph-name="a" unicode="a" horiz-adv-x="1035" 
d="M74 301v16q0 162 108 236.5t345 74.5h99v67q0 79 -36.5 103t-100.5 24q-44 0 -89.5 -1t-87 -3t-75 -4.5t-54.5 -4.5h-9q-15 0 -24.5 7.5t-9.5 25.5v150q0 31 36 40q51 13 138 26t180 13q100 0 180 -21t135.5 -66.5t85.5 -116.5t30 -172v-658q0 -15 -10.5 -26t-26.5 -11
h-206q-14 0 -25.5 11t-11.5 26v30q-53 -39 -113 -61t-143 -22q-61 0 -117 15t-100.5 52t-71 98t-26.5 152zM365 301q0 -60 28.5 -76.5t88.5 -16.5q42 0 79.5 12t70.5 28v204h-105q-95 0 -128.5 -33.5t-33.5 -101.5v-16z" />
    <glyph glyph-name="b" unicode="b" horiz-adv-x="1099" 
d="M111 85v1292q0 14 12 25.5t26 11.5h224q14 0 25.5 -11.5t11.5 -25.5v-319q40 6 81.5 9.5t69.5 3.5q234 0 348 -127.5t114 -344.5v-144q0 -225 -119 -348t-343 -123q-107 0 -210.5 13.5t-183.5 34.5q-37 8 -46.5 19.5t-9.5 33.5zM410 239q26 -3 65 -6.5t86 -3.5
q49 0 80.5 16.5t49.5 46.5t25.5 72t7.5 91v144q0 48 -7.5 89.5t-25.5 72t-49.5 47t-80.5 16.5q-34 0 -76 -3t-75 -7v-575z" />
    <glyph glyph-name="c" unicode="c" horiz-adv-x="873" 
d="M83 450v155q0 227 117 346.5t312 119.5q83 0 145 -9.5t101 -18.5q20 -5 29 -13t9 -29v-164q0 -14 -10 -22.5t-25 -8.5h-3q-52 5 -99 8.5t-126 3.5q-32 0 -59.5 -10t-47.5 -35t-32 -66.5t-12 -101.5v-155q0 -61 12 -102.5t32 -66.5t47.5 -35t59.5 -10q79 0 126 3.5t99 8.5
h3q15 0 25 -8t10 -22v-165q0 -21 -9 -29t-29 -13q-39 -9 -100.5 -18t-145.5 -9q-195 0 -312 119.5t-117 346.5z" />
    <glyph glyph-name="d" unicode="d" horiz-adv-x="1099" 
d="M77 455v144q0 218 114.5 345t348.5 127q28 0 69.5 -3.5t81.5 -9.5v319q0 14 11.5 25.5t25.5 11.5h223q15 0 27 -11.5t12 -25.5v-1292q0 -23 -10.5 -34t-47.5 -19q-79 -21 -182 -34.5t-210 -13.5q-225 0 -344 123t-119 348zM376 455q0 -49 7.5 -91t26 -72t49.5 -46.5
t81 -16.5q46 0 85.5 3.5t65.5 6.5v575q-33 4 -75.5 7t-75.5 3q-50 0 -81 -16.5t-49.5 -47t-26 -72t-7.5 -89.5v-144z" />
    <glyph glyph-name="e" unicode="e" horiz-adv-x="1087" 
d="M83 457v129q0 111 31.5 201.5t91.5 153t146 96.5t197 34q114 0 199 -37t142.5 -101.5t85.5 -153t28 -193.5v-107q0 -44 -38 -44h-588v-4q0 -39 9 -75.5t31 -64t58 -44.5t92 -17q44 0 94 2t98.5 4t91 5.5t70.5 5.5h5q35 0 35 -29v-141q0 -22 -7 -33t-32 -16
q-88 -23 -173 -33.5t-205 -10.5q-82 0 -165 24t-149.5 79t-107 146t-40.5 224zM378 619h336v7q0 104 -44.5 155t-122.5 51q-77 0 -123 -52t-46 -154v-7z" />
    <glyph glyph-name="f" unicode="f" horiz-adv-x="781" 
d="M50 896v121q0 14 12 27t26 13h148v58q0 98 20 159.5t59 97t97 47t133 11.5q41 0 72.5 -3.5t73.5 -10.5q35 -6 35 -37v-144q0 -32 -38 -32h-90q-43 0 -52.5 -15t-9.5 -71v-60h152q14 0 25 -11.5t11 -25.5v-150q0 -14 -11 -25.5t-25 -11.5h-152v-796q0 -15 -11 -26t-25 -11
h-227q-15 0 -26 11t-11 26v796l-148 24q-14 3 -26 13.5t-12 25.5z" />
    <glyph glyph-name="g" unicode="g" horiz-adv-x="1103" 
d="M85 -61q0 57 26 109t84 98q-49 28 -71 76.5t-22 94.5q0 51 23 90t58 66q-44 39 -64.5 102t-20.5 118v14q0 157 109.5 253.5t351.5 96.5h458q21 0 34 -14t13 -35v-104q0 -21 -8.5 -28.5t-25.5 -13.5l-57 -18q16 -26 28 -64.5t12 -72.5v-14q0 -181 -118.5 -263t-335.5 -82
q-65 0 -115 8.5t-77 19.5q-14 -9 -20 -19.5t-6 -22.5q0 -23 11 -33.5t44 -18.5l209 -46q119 -26 202 -51t134 -57.5t73 -77.5t22 -111v-15q0 -300 -483 -300q-231 0 -349.5 77.5t-118.5 222.5v15zM369 -61v-15q0 -47 38.5 -70t145.5 -23q56 0 91.5 6t55 19.5t26 31t6.5 36.5
v15q0 12 -6.5 24.5t-26.5 23.5t-57 23t-100 25l-136 30q-16 -25 -26.5 -51.5t-10.5 -74.5zM391 693q0 -24 6.5 -47t24.5 -41.5t51.5 -29.5t85.5 -11q98 0 131 35t33 94v14q0 57 -33.5 95.5t-130.5 38.5q-98 0 -133 -38t-35 -96v-14z" />
    <glyph glyph-name="h" unicode="h" horiz-adv-x="1127" 
d="M111 39v1338q0 14 10.5 25.5t26.5 11.5h225q14 0 25.5 -11.5t11.5 -25.5v-389q70 46 134 64.5t147 18.5q100 0 163.5 -32.5t99.5 -89.5t49.5 -133.5t13.5 -163.5v-613q0 -15 -11.5 -27t-27.5 -12h-222q-14 0 -25.5 12t-11.5 27v613q0 48 -6 81.5t-20 53.5t-41 28.5
t-70 8.5q-40 0 -82.5 -16.5t-89.5 -42.5v-726q0 -15 -11.5 -27t-25.5 -12h-224q-14 0 -26 12t-12 27z" />
    <glyph glyph-name="i" unicode="i" horiz-adv-x="533" 
d="M111 1213v171q0 15 10.5 26t26.5 11h239q14 0 25.5 -11t11.5 -26v-171q0 -14 -11.5 -25.5t-25.5 -11.5h-239q-15 0 -26 11t-11 26zM118 37v983q0 14 11 25.5t26 11.5h225q14 0 25.5 -11.5t11.5 -25.5v-983q0 -15 -11.5 -26t-25.5 -11h-225q-15 0 -26 11t-11 26z" />
    <glyph glyph-name="j" unicode="j" horiz-adv-x="533" 
d="M-59 -179q0 33 38 33h82q39 0 48 19.5t9 67.5v1076q0 14 10.5 27t24.5 13h229q14 0 24.5 -12.5t10.5 -27.5v-1076q0 -92 -20.5 -153t-58 -97t-92 -50.5t-121.5 -14.5q-72 0 -147 13q-37 5 -37 37v145zM111 1213v171q0 15 10.5 26t26.5 11h237q15 0 27 -11t12 -26v-171
q0 -14 -12 -25.5t-27 -11.5h-237q-15 0 -26 11t-11 26z" />
    <glyph glyph-name="k" unicode="k" horiz-adv-x="1083" 
d="M111 39v1338q0 14 12 25.5t26 11.5h224q14 0 25.5 -11.5t11.5 -25.5v-770l279 422q11 16 24 22t24 6h264q28 0 28 -21q0 -9 -7 -19l-343 -466l341 -512q3 -4 3 -15q0 -24 -24 -24h-278q-15 0 -25 4.5t-21 21.5l-265 433v-420q0 -15 -11.5 -27t-25.5 -12h-224
q-14 0 -26 12t-12 27z" />
    <glyph glyph-name="l" unicode="l" horiz-adv-x="519" 
d="M111 39v1338q0 14 12 25.5t26 11.5h225q15 0 25.5 -11.5t10.5 -25.5v-1338q0 -15 -10.5 -27t-25.5 -12h-225q-14 0 -26 12t-12 27z" />
    <glyph glyph-name="m" unicode="m" horiz-adv-x="1612" 
d="M111 39v981q0 14 10.5 25.5t26.5 11.5h209q15 0 26 -11.5t11 -25.5v-42q60 39 126 66t147 27q74 0 126.5 -21t91.5 -69q40 23 75 40t70.5 28t73 16.5t81.5 5.5q92 0 153 -29.5t97 -82t51.5 -127t15.5 -165.5v-628q0 -15 -12 -27t-27 -12h-223q-14 0 -25.5 12t-11.5 27
v628q0 88 -23.5 120.5t-88.5 32.5q-25 0 -62 -6.5t-79 -26.5q5 -55 5 -120v-628q0 -15 -11.5 -27t-25.5 -12h-223q-15 0 -27 12t-12 27v628q0 88 -21 120.5t-86 32.5q-26 0 -61.5 -12.5t-77.5 -35.5v-733q0 -15 -11.5 -27t-25.5 -12h-224q-14 0 -26 12t-12 27z" />
    <glyph glyph-name="n" unicode="n" horiz-adv-x="1127" 
d="M111 39v981q0 14 10.5 25.5t26.5 11.5h206q14 0 25.5 -11.5t11.5 -25.5v-45q75 53 143.5 74.5t156.5 21.5q100 0 163.5 -32.5t99.5 -89.5t49.5 -133.5t13.5 -163.5v-613q0 -15 -11.5 -27t-27.5 -12h-222q-14 0 -25.5 12t-11.5 27v613q0 48 -6 81.5t-20 53.5t-41 28.5
t-70 8.5q-40 0 -82.5 -16.5t-89.5 -42.5v-726q0 -15 -11.5 -27t-25.5 -12h-224q-14 0 -26 12t-12 27z" />
    <glyph glyph-name="o" unicode="o" horiz-adv-x="1085" 
d="M81 463v128q0 111 30.5 199.5t89.5 150.5t144.5 96t198.5 34q112 0 198 -34t144 -96t88 -150.5t30 -199.5v-128q0 -111 -30 -199t-88 -150.5t-144 -96t-198 -33.5q-113 0 -198.5 33.5t-144.5 96t-89.5 150.5t-30.5 199zM378 463q0 -113 42.5 -170t123.5 -57
q163 0 163 227v128q0 225 -163 225q-81 0 -123.5 -56t-42.5 -169v-128z" />
    <glyph glyph-name="p" unicode="p" horiz-adv-x="1099" 
d="M111 -322v1291q0 23 9.5 33.5t46.5 20.5q80 21 183.5 34.5t210.5 13.5q225 0 343.5 -123.5t118.5 -348.5v-144q0 -217 -114 -344t-348 -127q-28 0 -69.5 3.5t-81.5 8.5v-318q0 -15 -11.5 -26t-25.5 -11h-224q-14 0 -26 10.5t-12 26.5zM410 239q33 -3 75 -6.5t76 -3.5
q49 0 80.5 17.5t49.5 47.5t25.5 72t7.5 89v144q0 50 -7.5 90.5t-25.5 71t-49.5 47t-80.5 16.5q-46 0 -86 -3t-65 -7v-575z" />
    <glyph glyph-name="q" unicode="q" horiz-adv-x="1099" 
d="M77 455v144q0 225 119 348.5t344 123.5q107 0 210 -14t182 -34q37 -9 47.5 -20t10.5 -34v-1291q0 -15 -12 -26t-27 -11h-223q-14 0 -25.5 10.5t-11.5 26.5v318q-40 -5 -81.5 -8.5t-69.5 -3.5q-234 0 -348.5 127t-114.5 344zM376 455q0 -47 7.5 -89t26 -72t49.5 -47.5
t81 -17.5q33 0 75.5 3.5t75.5 6.5v575q-26 4 -65.5 7t-85.5 3q-50 0 -81 -16.5t-49.5 -47t-26 -71t-7.5 -90.5v-144z" />
    <glyph glyph-name="r" unicode="r" horiz-adv-x="729" 
d="M111 39v981q0 14 10.5 25.5t26.5 11.5h219q15 0 26 -11.5t11 -25.5v-37q51 42 116.5 65t131.5 23q15 0 26 -11.5t11 -25.5v-175q0 -13 -7 -24t-20 -11h-15q-68 0 -127 -18.5t-110 -45.5v-721q0 -15 -11.5 -27t-25.5 -12h-224q-14 0 -26 12t-12 27z" />
    <glyph glyph-name="s" unicode="s" horiz-adv-x="927" 
d="M77 785q0 140 93.5 213t284.5 73q109 0 184 -12t144 -30q35 -9 35 -43v-149q0 -35 -31 -35h-6q-21 4 -57 7.5t-79.5 7t-89 6.5t-80.5 3q-53 0 -75 -11t-22 -43q0 -20 15 -34t42 -31l228 -130q57 -33 93.5 -67.5t57.5 -70t28.5 -72.5t7.5 -74q0 -64 -24 -121.5t-73 -98.5
t-123 -65t-175 -24q-38 0 -81.5 2.5t-89 8t-87.5 12.5t-77 17q-35 9 -35 43v149q0 14 9.5 24.5t25.5 10.5h7q37 -5 82.5 -10t89.5 -8.5t81.5 -5.5t59.5 -2q67 0 88 17.5t21 54.5q0 21 -14.5 38t-52.5 39l-241 138q-77 44 -120.5 113.5t-43.5 159.5z" />
    <glyph glyph-name="t" unicode="t" horiz-adv-x="775" 
d="M42 896v121q0 14 12.5 27t26.5 13h148v150q0 14 11 23.5t26 13.5l224 38h6q14 0 23.5 -8t9.5 -22v-195h151q15 0 26 -11.5t11 -25.5v-150q0 -14 -11 -25.5t-26 -11.5h-151v-536q0 -55 9 -71t52 -16h90q39 0 39 -31v-144q0 -31 -35 -37q-42 -7 -73.5 -10.5t-72.5 -3.5
q-75 0 -133.5 12.5t-97 46.5t-58.5 96t-20 160v534l-148 24q-14 3 -26.5 13.5t-12.5 25.5z" />
    <glyph glyph-name="u" unicode="u" horiz-adv-x="1127" 
d="M111 404v613q0 14 12 27t26 13h224q14 0 25.5 -12.5t11.5 -27.5v-613q0 -48 5 -81t20 -54t41.5 -29t68.5 -8q41 0 83 17t91 43v725q0 14 11 27t26 13h222q15 0 27 -12.5t12 -27.5v-980q0 -15 -11 -26t-25 -11h-207q-14 0 -25.5 11t-11.5 26v44q-75 -53 -143 -74t-158 -21
q-99 0 -162.5 32.5t-99 89t-49.5 133t-14 163.5z" />
    <glyph glyph-name="v" unicode="v" horiz-adv-x="1078" 
d="M40 1025q0 32 30 32h243q15 0 25 -11.5t14 -28.5l158 -722q8 -39 28 -39q23 0 30 39l158 722q4 16 14.5 28t24.5 12h243q13 0 22.5 -8.5t9.5 -23.5q0 -7 -2 -12l-232 -836q-17 -61 -45.5 -99.5t-64.5 -59t-76.5 -27.5t-81.5 -7q-40 0 -80.5 7t-76 27.5t-63.5 59t-45 99.5
l-231 836q-2 4 -2 12z" />
    <glyph glyph-name="w" unicode="w" horiz-adv-x="1557" 
d="M51 1017v8q0 13 8 22.5t20 9.5h223q17 0 26.5 -6t12.5 -26l109 -701q4 -24 11 -23q9 0 14 23l124 487q13 48 36 65.5t67 17.5h151q44 0 67.5 -17.5t36.5 -65.5l123 -487q5 -24 15 -23q7 0 11 23l109 701q4 21 13 26.5t26 5.5h222q13 0 20.5 -9.5t7.5 -22.5v-8l-164 -888
q-7 -39 -23 -64.5t-37 -39.5t-47 -19.5t-55 -5.5h-112q-67 0 -104 32.5t-51 85.5l-124 481q-2 9 -9 9q-8 0 -9 -9l-124 -481q-14 -53 -51.5 -85.5t-103.5 -32.5h-112q-57 0 -102.5 25t-59.5 104z" />
    <glyph glyph-name="x" unicode="x" horiz-adv-x="1136" 
d="M57 22q0 10 4 15l322 512l-313 468q-3 7 -3 12q0 11 8 19.5t19 8.5h275q14 0 24.5 -10.5t23.5 -29.5l163 -254l152 254q12 21 22.5 30.5t24.5 9.5h248q22 0 21 -25q0 -9 -3 -15l-304 -482l334 -496q3 -7 3 -13q0 -9 -7 -17.5t-19 -8.5h-278q-14 0 -24.5 9t-23.5 30
l-182 285l-171 -287q-13 -21 -23.5 -29t-25.5 -8h-247q-20 0 -20 22z" />
    <glyph glyph-name="y" unicode="y" horiz-adv-x="1090" 
d="M39 1027q0 30 37 30h244q15 0 23.5 -10.5t12.5 -24.5l166 -694q7 -35 22 -35h1h8h8l171 729q3 14 13.5 24.5t24.5 10.5h245q15 0 25 -9.5t10 -24.5q0 -3 -1 -4.5t-1 -5.5l-309 -1085q-23 -76 -50 -132t-71.5 -93t-113 -56.5t-168.5 -19.5q-26 0 -57.5 3t-63 7t-59 9.5
t-44.5 10.5q-14 5 -26 12t-12 21v150q0 14 10.5 24.5t26.5 10.5h3q23 -2 53 -3.5t62.5 -5t62.5 -5t53 -1.5q49 0 77 20t44 76l17 57h-28q-26 0 -49 4.5t-45 21t-41 50.5t-36 95l-244 829q-1 6 -1 14z" />
    <glyph glyph-name="z" unicode="z" horiz-adv-x="948" 
d="M79 61v118q0 21 5.5 35.5t20.5 33.5l400 547q5 9 5 12q0 9 -12 9h-371q-32 0 -32 30v174q0 14 11.5 25.5t25.5 11.5h674q26 0 43.5 -18.5t17.5 -44.5v-137q0 -15 -4 -30.5t-17 -33.5l-382 -522q-5 -7 -5 -13q0 -7 13 -7h365q14 0 23.5 -7.5t9.5 -22.5v-184q0 -15 -11 -26
t-26 -11h-691q-26 0 -44.5 17.5t-18.5 43.5z" />
    <glyph glyph-name="braceleft" unicode="{" horiz-adv-x="749" 
d="M74 415v175q51 33 77 78.5t26 110.5v250q0 100 20.5 165t64.5 103.5t115 55.5t172 17h107q14 0 25.5 -11.5t11.5 -25.5v-160q0 -15 -11.5 -26t-25.5 -11h-107q-44 0 -57 -19.5t-13 -87.5v-250q0 -95 -34.5 -164.5t-118.5 -111.5q83 -42 118 -112.5t35 -165.5v-241
q0 -69 14 -88t58 -19h107q14 0 25.5 -11.5t11.5 -25.5v-160q0 -15 -11 -26t-26 -11h-107q-102 0 -172.5 16.5t-114.5 55t-64.5 104t-20.5 165.5v241q0 67 -27 112t-78 78z" />
    <glyph glyph-name="bar" unicode="|" horiz-adv-x="533" 
d="M116 -319v1652q0 14 12 25.5t27 11.5h227q14 0 25 -11.5t11 -25.5v-1652q0 -14 -11 -26t-25 -12h-227q-15 0 -27 11.5t-12 26.5z" />
    <glyph glyph-name="braceright" unicode="}" horiz-adv-x="749" 
d="M55 -160q0 14 11 25.5t26 11.5h107q44 0 58 19t14 88v241q0 95 35 165.5t118 112.5q-83 42 -118 111.5t-35 164.5v250q0 68 -13 87.5t-57 19.5h-107q-15 0 -26 10.5t-11 26.5v160q0 14 11 25.5t26 11.5h107q103 0 174 -17t115.5 -55.5t63.5 -104t19 -164.5v-250
q0 -66 26 -111t78 -78v-175q-51 -33 -78 -78t-27 -112v-241q0 -100 -19.5 -165.5t-63.5 -104t-115.5 -55t-174.5 -16.5h-107q-15 0 -26 10.5t-11 26.5v160z" />
    <glyph glyph-name="asciitilde" unicode="~" 
d="M129 656v33q0 83 19 139.5t53.5 89.5t83.5 48t107 15q26 0 67.5 -7.5t67.5 -23.5l166 -100q26 -15 45.5 -20.5t33.5 -5.5q30 0 42 13t12 48v46q0 37 34 37h165q37 0 37 -37v-46q0 -146 -65.5 -212t-198.5 -66q-53 0 -94.5 16.5t-73.5 36.5l-130 79q-27 14 -46 19t-34 5
q-38 0 -47.5 -22t-9.5 -52v-33q0 -14 -9 -25.5t-24 -11.5h-164q-37 0 -37 37z" />
    <glyph glyph-name="uni00A0" unicode="&#xa0;" 
 />
    <glyph glyph-name="exclamdown" unicode="&#xa1;" horiz-adv-x="503" 
d="M98 -320l37 919q2 15 12 27t24 12h157q15 0 28 -12t13 -27l37 -919v-2q0 -15 -13 -25t-28 -10h-230q-14 0 -25.5 9.5t-11.5 25.5v2zM107 787v233q0 14 10 25.5t25 11.5h217q15 0 26 -11.5t11 -25.5v-233q0 -15 -11 -25t-26 -10h-217q-35 0 -35 35z" />
    <glyph glyph-name="cent" unicode="&#xa2;" 
d="M238 450v155q0 175 71 287t198 155v151q0 14 11 25.5t26 11.5h186q14 0 25.5 -11t11.5 -26v-131q47 -3 83 -10t63 -14q20 -5 29 -13t9 -29v-164q0 -14 -10 -22.5t-25 -8.5h-3q-52 5 -99 8.5t-126 3.5q-32 0 -59.5 -10t-47.5 -35t-32.5 -66.5t-12.5 -101.5v-155
q0 -61 12.5 -102.5t32.5 -66.5t47.5 -35t59.5 -10q79 0 125.5 3.5t99.5 8.5h3q15 0 25 -8t10 -22v-165q0 -21 -9.5 -29t-28.5 -13q-27 -7 -63 -13.5t-83 -10.5v-135q0 -14 -11.5 -25t-25.5 -11h-186q-15 0 -26 11t-11 25v155q-127 43 -198 155t-71 288z" />
    <glyph glyph-name="sterling" unicode="&#xa3;" 
d="M125 607v178q0 14 11.5 24.5t25.5 10.5h91v153q0 107 25.5 185.5t82 129t146 74.5t217.5 24q39 0 84 -3.5t86.5 -9t76.5 -11.5t58 -11q26 -5 30.5 -13.5t4.5 -23.5v-183q0 -33 -30 -32h-5q-60 7 -145.5 14t-159.5 7q-90 0 -129 -28t-39 -117v-155h312q15 0 26 -10t11 -25
v-178q0 -35 -35 -35h-314v-185q0 -46 -10.5 -80t-25.5 -60h505q15 0 26 -9t11 -24v-179q0 -14 -11 -24.5t-26 -10.5h-815q-21 0 -27.5 15t-6.5 29v130q0 16 5 25t11 19q20 26 40.5 73.5t20.5 95.5v185h-93q-35 0 -35 35z" />
    <glyph glyph-name="currency" unicode="&#xa4;" 
d="M123 512v81q0 15 11.5 26t25.5 11h44v114h-44q-14 0 -25.5 11.5t-11.5 25.5v81q0 15 11.5 26t25.5 11h50q14 137 68 229t130.5 149.5t170.5 82t190 24.5q98 0 162 -11t94 -20q21 -6 31 -13t10 -28v-178q0 -37 -36 -37h-5q-53 4 -115 9.5t-140 5.5q-40 0 -79 -10.5
t-70 -34.5t-55 -65.5t-35 -102.5h392q32 0 32 -27q0 -5 -2 -10l-22 -81q-11 -37 -37 -37h-370v-114h336q11 0 18.5 -6.5t7.5 -15.5v-5l-27 -111q-2 -16 -26 -17h-302q11 -63 34 -105t55 -67t71 -35t79 -10q78 0 139.5 5.5t115.5 9.5h5q36 0 36 -37v-179q0 -21 -10.5 -28.5
t-30.5 -14.5q-30 -9 -94 -19.5t-162 -10.5q-99 0 -192.5 24.5t-170 82.5t-129 152.5t-67.5 231.5h-50q-14 0 -25.5 11.5t-11.5 25.5z" />
    <glyph glyph-name="yen" unicode="&#xa5;" 
d="M40 1346q0 24 28 24h271q15 0 22.5 -9.5t12.5 -22.5l219 -497l221 497q6 13 13.5 22.5t22.5 9.5h270q28 0 28 -24q0 -11 -3 -17l-205 -413h161q14 0 25.5 -10t11.5 -25v-137q0 -35 -36 -35h-261l-85 -169l-4 -20h349q14 0 25.5 -9.5t11.5 -23.5v-139q0 -33 -36 -33h-350
v-278q0 -15 -11 -26t-25 -11h-246q-15 0 -25 11t-10 26v278h-349q-14 0 -25 9.5t-11 23.5v139q0 14 11 23.5t25 9.5h349l-2 20l-83 169h-264q-14 0 -25 10.5t-11 24.5v137q0 15 11 25t25 10h162l-204 413q-4 6 -4 17z" />
    <glyph glyph-name="brokenbar" unicode="&#xa6;" horiz-adv-x="533" 
d="M116 285q0 15 12 26t27 11h227q14 0 25 -10.5t11 -26.5v-635q0 -14 -11 -26.5t-25 -12.5h-227q-15 0 -27 12t-12 27v635zM116 669v636q0 14 12 25.5t27 11.5h227q14 0 25 -11.5t11 -25.5v-636q0 -15 -11 -27t-25 -12h-227q-15 0 -27 12t-12 27z" />
    <glyph glyph-name="section" unicode="&#xa7;" horiz-adv-x="1085" 
d="M74 652q0 18 4.5 43.5t12 51t17.5 51.5t21 44q-23 26 -38 74t-15 101q0 76 23 143.5t77 117.5t144.5 79t224.5 29q50 0 108.5 -3.5t111.5 -9t99.5 -13t71.5 -14.5q14 -4 25.5 -12t11.5 -24v-188q0 -26 -23 -25h-2q-100 5 -200.5 10t-202.5 5q-82 0 -117.5 -18t-35.5 -77
q0 -35 29 -61.5t105 -67.5l235 -127q144 -77 197.5 -166.5t53.5 -202.5q0 -51 -14.5 -105.5t-33.5 -89.5q26 -42 37 -92t11 -103q0 -72 -26 -144t-84 -128t-154 -92t-238 -36q-110 0 -199.5 11t-159.5 30q-14 3 -25.5 12t-11.5 25v185q0 14 11.5 24.5t25.5 10.5h4
q88 -9 172 -17t173 -8h10q96 2 135 29.5t39 97.5q0 40 -29 69t-102 69l-245 134q-72 39 -117 79.5t-71 87t-36 98.5t-10 113zM319 634q0 -26 5.5 -46t22 -38.5t48 -39t82.5 -47.5l130 -69q40 -20 73.5 -45t47.5 -36q23 40 23 93q0 30 -8 53t-28 45t-54.5 44t-87.5 51
l-133 71q-35 21 -56 34t-34 24q-16 -16 -23.5 -41t-7.5 -53z" />
    <glyph glyph-name="dieresis" unicode="&#xa8;" horiz-adv-x="816" 
d="M83 1213v171q0 15 13 26t27 11h174q14 0 26.5 -11t12.5 -26v-171q0 -14 -12.5 -25.5t-26.5 -11.5h-174q-14 0 -27 11t-13 26zM483 1213v171q0 15 12 26t27 11h173q14 0 27 -11t13 -26v-171q0 -14 -13 -25.5t-27 -11.5h-173q-14 0 -26.5 11t-12.5 26z" />
    <glyph glyph-name="copyright" unicode="&#xa9;" horiz-adv-x="1382" 
d="M77 689q0 127 48.5 239.5t131 196.5t194 133t238.5 49t239.5 -49t195.5 -133t132 -196.5t49 -239.5t-49 -238.5t-132 -194t-195.5 -131t-239.5 -48.5t-238.5 48.5t-194 131t-131 194t-48.5 238.5zM171 689q0 -107 41 -201t111.5 -163.5t164.5 -110t201 -40.5t202 40.5
t165 110t111.5 163.5t41.5 201t-41.5 202t-111.5 166t-165 112.5t-202 41.5t-201 -41.5t-164.5 -112.5t-111.5 -166t-41 -202zM391 644v102q0 181 81.5 265t231.5 84q53 0 91 -6.5t60 -12.5q13 -3 18.5 -6.5t5.5 -15.5v-116q0 -23 -22 -22h-4q-31 4 -63 6.5t-86 2.5
q-24 0 -46 -7t-39.5 -27.5t-28 -54.5t-10.5 -90v-102q0 -55 10.5 -91.5t28 -56t39.5 -26.5t46 -7q48 0 83 2.5t66 6.5h6q20 0 20 -20v-114q0 -21 -24 -27q-24 -7 -60.5 -11.5t-90.5 -4.5q-150 0 -231.5 84.5t-81.5 264.5z" />
    <glyph glyph-name="ordfeminine" unicode="&#xaa;" horiz-adv-x="657" 
d="M61 916v13q0 101 79.5 142t213.5 41h40v24q0 49 -15.5 66t-61.5 17q-16 0 -42.5 -1l-53 -2t-50 -3t-39.5 -4h-2q-24 0 -23 26v93q0 22 25 26q28 10 80 19t105 9q61 0 111.5 -12t86.5 -40.5t55.5 -76.5t19.5 -117v-366q0 -26 -15 -29q-57 -15 -117 -22t-119 -7
q-144 0 -211 49.5t-67 154.5zM247 916q0 -38 22.5 -52t69.5 -14q18 0 31 1.5t24 3.5v148q-3 0 -11.5 0.5t-17.5 0.5t-11 -1q-53 0 -80 -17t-27 -57v-13z" />
    <glyph glyph-name="guillemotleft" unicode="&#xab;" horiz-adv-x="1323" 
d="M83 527q0 11 4.5 24t14.5 24l294 341q11 13 23 17.5t33 4.5h223q26 0 25 -20q0 -5 -7 -17l-324 -374l324 -374q7 -11 7 -16q0 -21 -25 -21h-223q-21 0 -32.5 4.5t-23.5 18.5l-294 340q-9 11 -14 24t-5 24zM645 527q0 11 4.5 24t13.5 24l295 341q11 13 22.5 17.5t31.5 4.5
h225q26 0 26 -20q0 -5 -7 -17l-325 -374l325 -374q7 -11 7 -16q0 -21 -26 -21h-225q-21 0 -32 4.5t-22 18.5l-295 340q-9 11 -13.5 24t-4.5 24z" />
    <glyph glyph-name="logicalnot" unicode="&#xac;" 
d="M171 876v164q0 14 11.5 21.5t25.5 7.5h775q35 0 34 -29v-675q0 -14 -10 -25.5t-24 -11.5h-157q-14 0 -23.5 11t-9.5 26v481h-585q-14 0 -25.5 7t-11.5 23z" />
    <glyph glyph-name="uni00AD" unicode="&#xad;" horiz-adv-x="556" 
d="M63 487v147q0 15 11 25t26 10h357q15 0 26 -10t11 -25v-147q0 -15 -11 -24t-26 -9h-357q-14 0 -25.5 9t-11.5 24z" />
    <glyph glyph-name="registered" unicode="&#xae;" horiz-adv-x="1101" 
d="M37 892q0 107 40.5 200t110.5 163.5t163.5 111t199.5 40.5q107 0 201 -40.5t164 -111t110.5 -163.5t40.5 -200t-40.5 -200t-110.5 -163t-164 -110.5t-201 -40.5t-200 40.5t-163 110.5t-110.5 163t-40.5 200zM130 892q0 -86 33.5 -163.5t90.5 -135t133.5 -90.5t163.5 -33
q86 0 164 33t135 90.5t90 135t33 163.5t-33 164t-90 134.5t-134.5 90t-164.5 33.5t-163.5 -33.5t-133.5 -90t-90.5 -134.5t-33.5 -164zM315 610v542q0 30 10.5 40.5t35.5 14.5q11 2 30.5 4t43.5 3l48 2t43 1q121 0 189 -43.5t68 -156.5v-13q0 -64 -30 -101.5t-78 -58.5
l127 -223q4 -7 4 -13q0 -18 -19 -18h-124q-11 0 -18 15l-116 204q-3 0 -7 5.5t-8 5.5h-48v-210q0 -20 -20 -20h-110q-21 0 -21 20zM463 932h14.5t24 -0.5t23.5 -0.5h13q53 0 76.5 18.5t23.5 54.5v13q0 37 -23.5 54.5t-76.5 17.5h-75v-157z" />
    <glyph glyph-name="macron" unicode="&#xaf;" horiz-adv-x="816" 
d="M74 1238v134q0 14 10.5 24.5t26.5 10.5h596q15 0 26 -10.5t11 -24.5v-134q0 -14 -10.5 -24.5t-26.5 -10.5h-596q-15 0 -26 10.5t-11 24.5z" />
    <glyph glyph-name="degree" unicode="&#xb0;" horiz-adv-x="665" 
d="M50 1102q0 60 22.5 111t62 90t90.5 61t109 22q59 0 110.5 -22t89.5 -61t60 -90t22 -111q0 -59 -22 -110.5t-60 -90.5t-90 -61t-110 -22q-57 0 -108.5 22t-91 61t-62 90.5t-22.5 110.5zM201 1102q0 -53 38.5 -93t94.5 -40q55 0 93.5 40t38.5 93q0 55 -39.5 95t-92.5 40
t-93 -40t-40 -95z" />
    <glyph glyph-name="plusminus" unicode="&#xb1;" 
d="M160 -7v130q0 15 11.5 22.5t25.5 7.5h795q14 0 25.5 -7t11.5 -23v-130q0 -15 -11.5 -22.5t-25.5 -7.5h-795q-14 0 -25.5 7.5t-11.5 22.5zM160 638v166q0 14 11.5 21.5t25.5 7.5h285v286q0 14 7 25.5t21 11.5h167q14 0 21.5 -11t7.5 -26v-286h286q14 0 25.5 -7.5
t11.5 -21.5v-166q0 -14 -11.5 -22t-25.5 -8h-286v-284q0 -14 -7.5 -25.5t-21.5 -11.5h-167q-14 0 -21 11.5t-7 25.5v284h-285q-14 0 -25.5 7.5t-11.5 22.5z" />
    <glyph glyph-name="uni00B2" unicode="&#xb2;" horiz-adv-x="649" 
d="M70 642v92q0 108 47 178.5t128 125.5l101 68q30 21 37.5 34.5t7.5 37.5q0 30 -21.5 39t-85.5 9q-90 0 -177 -11h-3q-25 0 -25 23v90q0 8 8 13.5t18 9.5q11 3 34 9t52.5 11.5t61 9t60.5 3.5q139 0 203 -47.5t64 -154.5q0 -113 -112 -188l-86 -60q-41 -28 -66.5 -47.5
t-40.5 -36.5t-19.5 -30.5t-4.5 -30.5v-8h294q9 0 18 -6t9 -17v-118q0 -11 -9 -17.5t-18 -6.5h-450q-26 0 -25 26z" />
    <glyph glyph-name="uni00B3" unicode="&#xb3;" horiz-adv-x="648" 
d="M70 673v88q0 25 24 24h1q32 -4 75.5 -6.5t80.5 -2.5q76 0 108 12t32 56v11q0 42 -15 60.5t-61 18.5h-176q-27 0 -27 26v97q0 26 27 25h167q48 0 66.5 18.5t18.5 44.5v14q0 43 -27.5 55t-92.5 12h-23q-36 0 -76 -3.5t-70 -7.5h-2q-24 0 -24 23v91q0 11 7 15.5t17 8.5
q31 12 88 22.5t113 10.5q125 0 201.5 -43t76.5 -156v-13q0 -56 -23 -96t-66 -68q48 -30 67.5 -70.5t19.5 -84.5v-11q0 -110 -73 -169t-203 -59q-65 0 -123 10t-90 25q-18 7 -18 22z" />
    <glyph glyph-name="acute" unicode="&#xb4;" horiz-adv-x="816" 
d="M276 1174q0 10 8 18l171 216q13 15 21.5 21.5t28.5 6.5h241q21 0 21 -13q0 -7 -7 -15l-225 -224q-11 -11 -19 -17t-26 -6h-197q-16 0 -17 13z" />
    <glyph glyph-name="uni00B5" unicode="&#xb5;" horiz-adv-x="1127" 
d="M109 -315v1330q0 15 11.5 28.5t27.5 13.5h223q14 0 26.5 -13.5t12.5 -28.5v-611q0 -95 37.5 -135t124.5 -40q44 0 81.5 2.5t65.5 9.5v774q0 15 11 28.5t26 13.5h222q15 0 27 -13.5t12 -28.5v-925q0 -21 -11.5 -33.5t-45.5 -23.5q-63 -20 -161.5 -34.5t-226.5 -14.5
q-92 0 -164 16v-315q0 -14 -11.5 -25.5t-25.5 -11.5h-225q-15 0 -26 11t-11 26z" />
    <glyph glyph-name="paragraph" unicode="&#xb6;" horiz-adv-x="1214" 
d="M83 857v101q0 100 34 176.5t95 129t142.5 79.5t178.5 27h547q30 0 30 -35v-1659q0 -14 -8.5 -24.5t-23.5 -10.5h-79q-14 0 -22.5 10t-8.5 25v1553h-117v-1553q0 -14 -8 -24.5t-23 -10.5h-79q-15 0 -23.5 10t-8.5 25v770h-176q-96 0 -178 27t-143 79.5t-95 129t-34 175.5z
" />
    <glyph glyph-name="periodcentered" unicode="&#xb7;" horiz-adv-x="504" 
d="M107 588v232q0 14 11.5 24.5t27.5 10.5h215q14 0 25.5 -10t11.5 -25v-232q0 -15 -11 -26t-26 -11h-215q-15 0 -27 11t-12 26z" />
    <glyph glyph-name="cedilla" unicode="&#xb8;" horiz-adv-x="784" 
d="M105 -326q0 9 7 18l172 216q12 15 20.5 21t29.5 6h243q21 0 21 -12q0 -8 -8 -15l-227 -225q-11 -11 -18 -16.5t-26 -5.5h-197q-17 0 -17 13z" />
    <glyph glyph-name="uni00B9" unicode="&#xb9;" horiz-adv-x="596" 
d="M70 1141v134q0 15 15 21l156 66q18 7 23 8h119q21 0 21 -19v-715q0 -20 -19 -20h-156q-18 0 -19 20v546l-118 -48q-11 -4 -13 -4q-9 0 -9 11z" />
    <glyph glyph-name="ordmasculine" unicode="&#xba;" horiz-adv-x="700" 
d="M63 1015v61q0 155 75.5 230.5t213.5 75.5t213 -75.5t75 -230.5v-61q0 -155 -75 -229t-213 -74q-139 0 -214 74t-75 229zM258 1015q0 -77 23 -108t71 -31t69.5 31t21.5 108v61q0 78 -21.5 109.5t-69.5 31.5t-71 -31.5t-23 -109.5v-61z" />
    <glyph glyph-name="guillemotright" unicode="&#xbb;" horiz-adv-x="1323" 
d="M79 137q0 5 7 16l325 374l-325 374q-7 11 -7 17q0 21 26 20h223q21 0 33 -4.5t22 -17.5l296 -341q9 -11 13.5 -24t4.5 -24q0 -10 -4.5 -23.5t-13.5 -24.5l-296 -340q-10 -13 -22.5 -18t-32.5 -5h-223q-26 0 -26 21zM642 137q0 5 7 16l324 374l-324 374q-7 11 -7 17
q0 21 25 20h223q21 0 31.5 -4.5t22.5 -17.5l294 -341q21 -23 21 -48q0 -24 -21 -48l-294 -340q-11 -13 -22 -18t-32 -5h-223q-26 0 -25 21z" />
    <glyph glyph-name="onequarter" unicode="&#xbc;" horiz-adv-x="1455" 
d="M70 1141v134q0 15 15 21l156 66q18 7 23 8h119q21 0 21 -19v-715q0 -20 -19 -20h-156q-18 0 -19 20v546l-118 -48q-11 -4 -13 -4q-9 0 -9 11zM167 16q0 7 7 19l772 1305q11 18 18 24t22 6h190q18 -1 18 -17q0 -9 -5 -20l-771 -1307q-10 -18 -17 -24t-21 -6h-192
q-21 0 -21 20zM822 183v114q0 24 11 37l305 407q9 12 25 13h105q14 0 25.5 -10t11.5 -27v-404h53q11 0 19.5 -6t8.5 -17v-102q0 -11 -8 -18.5t-20 -7.5h-53v-134q0 -11 -7 -19.5t-19 -8.5h-140q-10 0 -17 8t-7 20v134h-267q-26 0 -26 21zM966 317q0 -4 12 -4h144v197
q0 13 -3 14q-6 0 -11 -10l-135 -182q-7 -9 -7 -15z" />
    <glyph glyph-name="onehalf" unicode="&#xbd;" horiz-adv-x="1502" 
d="M70 1141v134q0 15 15 21l156 66q18 7 23 8h119q21 0 21 -19v-715q0 -20 -19 -20h-156q-18 0 -19 20v546l-118 -48q-11 -4 -13 -4q-9 0 -9 11zM167 16q0 7 7 19l772 1305q11 18 18 24t22 6h190q18 -1 18 -17q0 -9 -5 -20l-771 -1307q-10 -18 -17 -24t-21 -6h-192
q-21 0 -21 20zM922 26v92q0 109 46.5 175t128.5 122l101 68q30 21 37 34.5t7 36.5q0 30 -21 39.5t-85 9.5q-90 0 -178 -12h-3q-24 0 -24 25v88q0 9 8.5 14.5t17.5 9.5q11 4 33.5 9t52.5 11t61.5 9.5t60.5 3.5q138 0 202.5 -47.5t64.5 -154.5q0 -113 -113 -188l-86 -60
q-41 -27 -66.5 -46.5t-40 -34t-19.5 -27.5t-5 -29v-8h295q9 0 17.5 -6.5t8.5 -17.5v-118q0 -10 -8 -17t-18 -7h-449q-26 0 -26 26z" />
    <glyph glyph-name="threequarters" unicode="&#xbe;" horiz-adv-x="1584" 
d="M70 673v88q0 25 24 24h1q32 -4 75.5 -6.5t80.5 -2.5q76 0 108 12t32 56v11q0 42 -15 60.5t-61 18.5h-176q-27 0 -27 26v97q0 26 27 25h167q48 0 66.5 18.5t18.5 44.5v14q0 43 -27.5 55t-92.5 12h-23q-36 0 -76 -3.5t-70 -7.5h-2q-24 0 -24 23v91q0 11 7 15.5t17 8.5
q31 12 88 22.5t113 10.5q125 0 201.5 -43t76.5 -156v-13q0 -56 -23 -96t-66 -68q48 -30 67.5 -70.5t19.5 -84.5v-11q0 -110 -73 -169t-203 -59q-65 0 -123 10t-90 25q-18 7 -18 22zM299 21q0 7 5 18l771 1301q10 18 18 24t22 6h190q18 -1 18 -17q0 -9 -5 -20l-769 -1303
q-11 -18 -17 -24t-22 -6h-191q-21 0 -20 21zM951 183v114q0 24 11 37l304 407q9 12 26 13h105q14 0 25.5 -10t11.5 -27v-404h54q10 0 18.5 -6t8.5 -17v-102q0 -11 -8.5 -18.5t-18.5 -7.5h-54v-134q0 -11 -7.5 -19.5t-18.5 -8.5h-140q-11 0 -17.5 8t-6.5 20v134h-268
q-26 0 -25 21zM1095 317q0 -4 13 -4h144v197q0 13 -5 14q-5 0 -10 -10l-135 -182q-7 -9 -7 -15z" />
    <glyph glyph-name="questiondown" unicode="&#xbf;" horiz-adv-x="882" 
d="M88 -13q0 63 32.5 126.5t109.5 162.5l83 107q32 41 52 66.5t31.5 43t16 30.5t4.5 28v52q0 16 14.5 25.5t29.5 9.5h184q15 0 25 -11t10 -26v-50q0 -35 -1.5 -65.5t-10 -58t-24.5 -56t-41 -63.5l-89 -116q-51 -69 -68 -107.5t-17 -79.5v-18q0 -31 21.5 -49.5t69.5 -18.5
q72 0 134.5 5.5t128.5 14.5h6q32 0 31 -39v-164q0 -20 -6.5 -31t-26.5 -16q-60 -18 -138.5 -28.5t-156.5 -10.5q-95 0 -170 15.5t-126.5 51.5t-79.5 94.5t-28 144.5v31zM400 789v233q0 14 11 24.5t25 10.5h218q15 0 26 -10.5t11 -24.5v-233q0 -14 -11 -25.5t-26 -11.5h-218
q-14 0 -25 11t-11 26z" />
    <glyph glyph-name="Agrave" unicode="&#xc0;" horiz-adv-x="1233" 
d="M35 30q0 2 1 3.5t1 5.5l274 1143q17 66 48.5 106.5t72.5 62t89.5 28.5t95.5 7q48 0 95.5 -7t88.5 -28.5t72.5 -62.5t48.5 -106l274 -1143q0 -4 1 -5.5t1 -3.5q0 -30 -32 -30h-257q-14 0 -23.5 9t-13.5 24l-66 303h-378l-67 -303q-4 -14 -13 -23.5t-24 -9.5h-257
q-32 0 -32 30zM345 1725q0 13 20 13h243q21 0 29 -6.5t21 -20.5l170 -216q7 -10 7 -19q0 -13 -17 -13h-197q-18 0 -25.5 5.5t-18.5 17.5l-225 225q-7 7 -7 14zM479 588h275l-112 509q-4 15 -8 21t-17 6q-20 0 -26 -27z" />
    <glyph glyph-name="Aacute" unicode="&#xc1;" horiz-adv-x="1233" 
d="M35 30q0 2 1 3.5t1 5.5l274 1143q17 66 48.5 106.5t72.5 62t89.5 28.5t95.5 7q48 0 95.5 -7t88.5 -28.5t72.5 -62.5t48.5 -106l274 -1143q0 -4 1 -5.5t1 -3.5q0 -30 -32 -30h-257q-14 0 -23.5 9t-13.5 24l-66 303h-378l-67 -303q-4 -14 -13 -23.5t-24 -9.5h-257
q-32 0 -32 30zM426 1476q0 9 7 19l172 216q12 14 20.5 20.5t28.5 6.5h242q20 0 20 -13q0 -7 -7 -14l-225 -225q-11 -11 -18.5 -17t-25.5 -6h-197q-16 0 -17 13zM479 588h275l-112 509q-4 15 -8 21t-17 6q-20 0 -26 -27z" />
    <glyph glyph-name="Acircumflex" unicode="&#xc2;" horiz-adv-x="1233" 
d="M35 30q0 2 1 3.5t1 5.5l274 1143q17 66 48.5 106.5t72.5 62t89.5 28.5t95.5 7q48 0 95.5 -7t88.5 -28.5t72.5 -62.5t48.5 -106l274 -1143q0 -4 1 -5.5t1 -3.5q0 -30 -32 -30h-257q-14 0 -23.5 9t-13.5 24l-66 303h-378l-67 -303q-4 -14 -13 -23.5t-24 -9.5h-257
q-32 0 -32 30zM248 1478q0 9 8 19l164 216q13 14 21.5 20.5t28.5 6.5h295q21 0 29 -5.5t20 -21.5l162 -216q9 -10 9 -19q0 -13 -17 -13h-190q-18 0 -26 4.5t-18 18.5l-117 128l-117 -128q-11 -13 -19 -18t-26 -5h-189q-17 0 -18 13zM479 588h275l-112 509q-4 15 -8 21t-17 6
q-20 0 -26 -27z" />
    <glyph glyph-name="Atilde" unicode="&#xc3;" horiz-adv-x="1233" 
d="M35 30q0 2 1 3.5t1 5.5l274 1143q17 66 48.5 106.5t72.5 62t89.5 28.5t95.5 7q48 0 95.5 -7t88.5 -28.5t72.5 -62.5t48.5 -106l274 -1143q0 -4 1 -5.5t1 -3.5q0 -30 -32 -30h-257q-14 0 -23.5 9t-13.5 24l-66 303h-378l-67 -303q-4 -14 -13 -23.5t-24 -9.5h-257
q-32 0 -32 30zM248 1493v35q0 120 61.5 170t165.5 50q28 0 64 -9.5t66 -30.5l79 -51q24 -15 41 -24t33 -9q20 0 31 10t11 40v34q0 30 30 30h128q28 0 28 -30v-36q0 -121 -59.5 -171t-165.5 -50q-27 0 -64 10t-67 30l-77 53q-46 34 -76 34q-18 0 -30 -10t-12 -40v-35
q0 -31 -27 -31h-132q-28 0 -28 31zM479 588h275l-112 509q-4 15 -8 21t-17 6q-20 0 -26 -27z" />
    <glyph glyph-name="Adieresis" unicode="&#xc4;" horiz-adv-x="1233" 
d="M35 30q0 2 1 3.5t1 5.5l274 1143q17 66 48.5 106.5t72.5 62t89.5 28.5t95.5 7q48 0 95.5 -7t88.5 -28.5t72.5 -62.5t48.5 -106l274 -1143q0 -4 1 -5.5t1 -3.5q0 -30 -32 -30h-257q-14 0 -23.5 9t-13.5 24l-66 303h-378l-67 -303q-4 -14 -13 -23.5t-24 -9.5h-257
q-32 0 -32 30zM290 1513v172q0 14 12.5 25.5t27.5 11.5h173q15 0 27 -11.5t12 -25.5v-172q0 -15 -12 -26t-27 -11h-173q-14 0 -27 11t-13 26zM479 588h275l-112 509q-4 15 -8 21t-17 6q-20 0 -26 -27zM689 1513v172q0 14 12.5 25.5t26.5 11.5h173q14 0 27.5 -11.5
t13.5 -25.5v-172q0 -15 -13 -26t-28 -11h-173q-14 0 -26.5 11t-12.5 26z" />
    <glyph glyph-name="Aring" unicode="&#xc5;" horiz-adv-x="1233" 
d="M35 30q0 2 1 3.5t1 5.5l274 1143q17 66 48.5 106.5t72.5 62t89.5 28.5t95.5 7q48 0 95.5 -7t88.5 -28.5t72.5 -62.5t48.5 -106l274 -1143q0 -4 1 -5.5t1 -3.5q0 -30 -32 -30h-257q-14 0 -23.5 9t-13.5 24l-66 303h-378l-67 -303q-4 -14 -13 -23.5t-24 -9.5h-257
q-32 0 -32 30zM400 1650q0 44 16.5 83.5t46 69t69.5 46.5t84 17t83.5 -17t69 -46.5t46.5 -69t17 -83.5t-17 -84t-46.5 -69.5t-69 -46t-83.5 -16.5t-84 16.5t-69.5 46t-46 69.5t-16.5 84zM479 588h275l-112 509q-4 15 -8 21t-17 6q-20 0 -26 -27zM535 1650q0 -34 23.5 -57.5
t57.5 -23.5q33 0 57 23.5t24 57.5q0 33 -24 57t-57 24q-34 0 -57.5 -24t-23.5 -57z" />
    <glyph glyph-name="AE" unicode="&#xc6;" horiz-adv-x="1701" 
d="M35 30q0 2 1 3.5t1 5.5l274 1143q17 66 48.5 103.5t72.5 56t89.5 23.5t95.5 5h945q36 0 36 -37v-179q0 -15 -11 -26t-25 -11h-447v-293h431q15 0 26 -11t11 -26v-175q0 -14 -10.5 -25.5t-26.5 -11.5h-431v-195q0 -72 26.5 -98.5t91.5 -26.5h329q14 0 25 -11.5t11 -25.5
v-172q0 -33 -36 -39q-25 -3 -48.5 -7t-57 -7.5t-82 -6t-124.5 -2.5q-84 0 -162 12.5t-139 51t-99.5 108t-45.5 180.5h-376l-67 -303q-4 -14 -13 -23.5t-24 -9.5h-257q-32 0 -32 30zM479 588h323v536h-185q-20 0 -26 -27z" />
    <glyph glyph-name="Ccedilla" unicode="&#xc7;" horiz-adv-x="1033" 
d="M98 570v232q0 164 46 276.5t121.5 181t174 97.5t204.5 29q98 0 171 -11t103 -21q21 -5 30.5 -12t9.5 -28v-178q0 -37 -35 -37h-5q-53 3 -124 8.5t-149 5.5q-47 0 -89 -14t-73 -50t-48.5 -95.5t-17.5 -151.5v-232q0 -92 17.5 -152.5t48.5 -96.5t73 -49.5t89 -13.5
q78 0 149 5.5t124 9.5h5q35 0 35 -37v-179q0 -21 -10 -28.5t-30 -14.5q-30 -9 -103.5 -19.5t-170.5 -10.5q-106 0 -204.5 29t-174 98.5t-121.5 182t-46 276.5zM301 -326q0 9 7 18l171 216q12 15 20.5 21t29.5 6h243q21 0 21 -12q0 -8 -8 -15l-226 -225q-11 -11 -18.5 -16.5
t-26.5 -5.5h-197q-16 0 -16 13z" />
    <glyph glyph-name="Egrave" unicode="&#xc8;" horiz-adv-x="1068" 
d="M123 380v612q0 125 37 202.5t98.5 119.5t144 57t170.5 15q76 0 131.5 -2.5t97.5 -6.5t72.5 -7.5t54.5 -7.5q37 -6 37 -36v-172q0 -15 -11 -26t-26 -11h-375q-64 0 -91 -26.5t-27 -98.5v-168h478q15 0 26 -11t11 -26v-175q0 -14 -11 -25.5t-26 -11.5h-478v-195
q0 -72 27 -98.5t91 -26.5h375q14 0 25.5 -11.5t11.5 -25.5v-172q0 -33 -37 -39q-48 -7 -128 -15t-229 -8q-89 0 -170.5 14.5t-143 58t-98.5 121t-37 202.5zM236 1727q0 13 20 13h244q20 0 28 -6.5t21 -20.5l170 -216q7 -10 7 -19q0 -13 -17 -13h-197q-18 0 -25.5 5.5
t-18.5 17.5l-225 225q-7 7 -7 14z" />
    <glyph glyph-name="Eacute" unicode="&#xc9;" horiz-adv-x="1068" 
d="M123 380v612q0 125 37 202.5t98.5 119.5t144 57t170.5 15q76 0 131.5 -2.5t97.5 -6.5t72.5 -7.5t54.5 -7.5q37 -6 37 -36v-172q0 -15 -11 -26t-26 -11h-375q-64 0 -91 -26.5t-27 -98.5v-168h478q15 0 26 -11t11 -26v-175q0 -14 -11 -25.5t-26 -11.5h-478v-195
q0 -72 27 -98.5t91 -26.5h375q14 0 25.5 -11.5t11.5 -25.5v-172q0 -33 -37 -39q-48 -7 -128 -15t-229 -8q-89 0 -170.5 14.5t-143 58t-98.5 121t-37 202.5zM389 1478q0 9 7 19l172 216q12 14 21 20.5t28 6.5h242q20 0 20 -13q0 -7 -7 -14l-225 -225q-11 -11 -18.5 -17
t-25.5 -6h-197q-16 0 -17 13z" />
    <glyph glyph-name="Ecircumflex" unicode="&#xca;" horiz-adv-x="1068" 
d="M123 380v612q0 125 37 202.5t98.5 119.5t144 57t170.5 15q76 0 131.5 -2.5t97.5 -6.5t72.5 -7.5t54.5 -7.5q37 -6 37 -36v-172q0 -15 -11 -26t-26 -11h-375q-64 0 -91 -26.5t-27 -98.5v-168h478q15 0 26 -11t11 -26v-175q0 -14 -11 -25.5t-26 -11.5h-478v-195
q0 -72 27 -98.5t91 -26.5h375q14 0 25.5 -11.5t11.5 -25.5v-172q0 -33 -37 -39q-48 -7 -128 -15t-229 -8q-89 0 -170.5 14.5t-143 58t-98.5 121t-37 202.5zM202 1478q0 9 8 19l164 216q13 14 21.5 20.5t28.5 6.5h295q21 0 29 -5.5t21 -21.5l162 -216q7 -10 7 -19
q0 -13 -16 -13h-190q-18 0 -26 4.5t-18 18.5l-116 128l-118 -128q-11 -13 -18.5 -18t-25.5 -5h-190q-17 0 -18 13z" />
    <glyph glyph-name="Edieresis" unicode="&#xcb;" horiz-adv-x="1068" 
d="M123 380v612q0 125 37 202.5t98.5 119.5t144 57t170.5 15q76 0 131.5 -2.5t97.5 -6.5t72.5 -7.5t54.5 -7.5q37 -6 37 -36v-172q0 -15 -11 -26t-26 -11h-375q-64 0 -91 -26.5t-27 -98.5v-168h478q15 0 26 -11t11 -26v-175q0 -14 -11 -25.5t-26 -11.5h-478v-195
q0 -72 27 -98.5t91 -26.5h375q14 0 25.5 -11.5t11.5 -25.5v-172q0 -33 -37 -39q-48 -7 -128 -15t-229 -8q-89 0 -170.5 14.5t-143 58t-98.5 121t-37 202.5zM214 1513v172q0 14 12.5 25.5t28.5 11.5h173q14 0 26 -11.5t12 -25.5v-172q0 -15 -11.5 -26t-26.5 -11h-173
q-15 0 -28 11t-13 26zM614 1513v172q0 14 12 25.5t26 11.5h174q15 0 28 -11.5t13 -25.5v-172q0 -15 -13 -26t-28 -11h-174q-14 0 -26 11t-12 26z" />
    <glyph glyph-name="Igrave" unicode="&#xcc;" horiz-adv-x="572" 
d="M-22 1727q0 13 20 13h243q21 0 29 -6.5t22 -20.5l169 -216q7 -10 7 -19q0 -13 -16 -13h-197q-18 0 -26 5.5t-19 17.5l-224 225q-8 7 -8 14zM129 37v1298q0 35 33 35h248q35 0 35 -35v-1298q0 -15 -10.5 -26t-24.5 -11h-248q-14 0 -23.5 11t-9.5 26z" />
    <glyph glyph-name="Iacute" unicode="&#xcd;" horiz-adv-x="572" 
d="M111 1478q0 9 7 19l172 216q12 14 20.5 20.5t28.5 6.5h241q21 0 21 -13q0 -7 -8 -14l-224 -225q-11 -11 -18.5 -17t-26.5 -6h-197q-16 0 -16 13zM129 37v1298q0 35 33 35h248q35 0 35 -35v-1298q0 -15 -10.5 -26t-24.5 -11h-248q-14 0 -23.5 11t-9.5 26z" />
    <glyph glyph-name="Icircumflex" unicode="&#xce;" horiz-adv-x="572" 
d="M-79 1476q0 9 7 19l164 216q12 14 21 20.5t29 6.5h294q21 0 29 -5.5t22 -21.5l162 -216q7 -10 7 -19q0 -13 -16 -13h-190q-18 0 -25.5 4.5t-18.5 18.5l-116 129l-119 -129q-11 -13 -18 -18t-26 -5h-190q-16 0 -16 13zM129 37v1298q0 35 33 35h248q35 0 35 -35v-1298
q0 -15 -10.5 -26t-24.5 -11h-248q-14 0 -23.5 11t-9.5 26z" />
    <glyph glyph-name="Idieresis" unicode="&#xcf;" horiz-adv-x="572" 
d="M-40 1513v172q0 14 13 25.5t27 11.5h174q14 0 26 -11.5t12 -25.5v-172q0 -15 -12 -26t-26 -11h-174q-14 0 -27 11t-13 26zM129 37v1298q0 35 33 35h248q35 0 35 -35v-1298q0 -15 -10.5 -26t-24.5 -11h-248q-14 0 -23.5 11t-9.5 26zM359 1513v172q0 14 12 25.5t27 11.5
h174q14 0 27 -11.5t13 -25.5v-172q0 -15 -13 -26t-27 -11h-174q-15 0 -27 11t-12 26z" />
    <glyph glyph-name="Eth" unicode="&#xd0;" horiz-adv-x="1256" 
d="M-14 610v179q0 35 35 35h101v468q0 32 13.5 46.5t40.5 17.5q72 13 166 21.5t233 8.5q131 0 239 -33.5t185 -106.5t120.5 -188.5t43.5 -279.5v-187q0 -162 -43.5 -278t-120.5 -189t-185 -106.5t-239 -33.5q-139 0 -234.5 8t-164.5 21q-27 3 -40.5 18t-13.5 46v498h-101
q-35 0 -35 35zM438 258q11 0 29 -1t37.5 -1h38.5h32q65 0 114.5 15.5t83.5 54.5t51.5 103.5t17.5 161.5v187q0 98 -17.5 162t-51.5 103t-83.5 54.5t-114.5 15.5h-32t-38.5 -0.5t-37 -1.5t-29.5 -1v-286h113q35 0 35 -35v-179q0 -35 -35 -35h-113v-317z" />
    <glyph glyph-name="Ntilde" unicode="&#xd1;" horiz-adv-x="1342" 
d="M129 37v1263q0 29 20 49.5t50 20.5h186q28 0 44.5 -14t33.5 -44l436 -759q9 -15 15 -15q9 0 9 16v781q0 14 11.5 24.5t25.5 10.5h218q14 0 25.5 -10.5t11.5 -24.5v-1265q0 -30 -21 -50t-51 -20h-181q-30 0 -52 10.5t-43 46.5l-421 726q-9 14 -17 15q-9 0 -9 -15v-746
q0 -15 -11 -26t-26 -11h-217q-15 0 -26 11t-11 26zM292 1493v35q0 120 60.5 170t165.5 50q27 0 63 -9.5t66 -30.5l79 -51q25 -15 42 -24t32 -9q21 0 31.5 10t10.5 40v34q0 30 30 30h129q28 0 28 -30v-36q0 -121 -60 -171t-165 -50q-28 0 -65 10t-66 30l-77 53q-46 34 -76 34
q-18 0 -30.5 -10t-12.5 -40v-35q0 -31 -27 -31h-131q-28 0 -27 31z" />
    <glyph glyph-name="Ograve" unicode="&#xd2;" horiz-adv-x="1286" 
d="M98 575v220q0 160 42.5 272.5t116 183t173 103t214.5 32.5q114 0 213.5 -32.5t173 -103t116 -183t42.5 -272.5v-220q0 -160 -42.5 -272.5t-116 -183.5t-173 -103t-213.5 -32q-115 0 -214.5 32t-173 103t-116 183.5t-42.5 272.5zM317 1725q0 13 21 13h242q21 0 29 -6.5
t21 -20.5l170 -216q7 -10 7 -19q0 -13 -16 -13h-198q-18 0 -25 5.5t-19 17.5l-225 225q-7 7 -7 14zM417 575q0 -167 55 -241t172 -74q116 0 172 74t56 241v220q0 167 -56 241t-172 74q-117 0 -172 -74t-55 -241v-220z" />
    <glyph glyph-name="Oacute" unicode="&#xd3;" horiz-adv-x="1286" 
d="M98 575v220q0 160 42.5 272.5t116 183t173 103t214.5 32.5q114 0 213.5 -32.5t173 -103t116 -183t42.5 -272.5v-220q0 -160 -42.5 -272.5t-116 -183.5t-173 -103t-213.5 -32q-115 0 -214.5 32t-173 103t-116 183.5t-42.5 272.5zM417 575q0 -167 55 -241t172 -74
q116 0 172 74t56 241v220q0 167 -56 241t-172 74q-117 0 -172 -74t-55 -241v-220zM457 1478q0 9 7 19l172 216q13 14 21 20.5t29 6.5h241q21 0 21 -13q0 -7 -8 -14l-224 -225q-11 -11 -19 -17t-27 -6h-197q-16 0 -16 13z" />
    <glyph glyph-name="Ocircumflex" unicode="&#xd4;" horiz-adv-x="1286" 
d="M98 575v220q0 160 42.5 272.5t116 183t173 103t214.5 32.5q114 0 213.5 -32.5t173 -103t116 -183t42.5 -272.5v-220q0 -160 -42.5 -272.5t-116 -183.5t-173 -103t-213.5 -32q-115 0 -214.5 32t-173 103t-116 183.5t-42.5 272.5zM267 1478q0 9 7 19l164 216
q13 14 21.5 20.5t29.5 6.5h294q21 0 29 -5.5t21 -21.5l162 -216q8 -10 8 -19q0 -13 -17 -13h-190q-18 0 -25.5 4.5t-18.5 18.5l-116 128l-118 -128q-11 -13 -18.5 -18t-26.5 -5h-189q-17 0 -17 13zM417 575q0 -167 55 -241t172 -74q116 0 172 74t56 241v220q0 167 -56 241
t-172 74q-117 0 -172 -74t-55 -241v-220z" />
    <glyph glyph-name="Otilde" unicode="&#xd5;" horiz-adv-x="1286" 
d="M98 575v220q0 160 42.5 272.5t116 183t173 103t214.5 32.5q114 0 213.5 -32.5t173 -103t116 -183t42.5 -272.5v-220q0 -160 -42.5 -272.5t-116 -183.5t-173 -103t-213.5 -32q-115 0 -214.5 32t-173 103t-116 183.5t-42.5 272.5zM282 1495v35q0 120 61 170t165 50
q28 0 64 -9.5t66 -29.5l79 -52q25 -15 42 -24.5t32 -9.5q21 0 31.5 10.5t10.5 40.5v35q0 30 29 29h130q28 0 28 -29v-37q0 -122 -60.5 -171.5t-164.5 -49.5q-28 0 -65 9.5t-67 30.5l-77 53q-46 34 -76 34q-18 0 -30 -10t-12 -40v-35q0 -32 -28 -32h-130q-28 0 -28 32z
M417 575q0 -167 55 -241t172 -74q116 0 172 74t56 241v220q0 167 -56 241t-172 74q-117 0 -172 -74t-55 -241v-220z" />
    <glyph glyph-name="Odieresis" unicode="&#xd6;" horiz-adv-x="1286" 
d="M98 575v220q0 160 42.5 272.5t116 183t173 103t214.5 32.5q114 0 213.5 -32.5t173 -103t116 -183t42.5 -272.5v-220q0 -160 -42.5 -272.5t-116 -183.5t-173 -103t-213.5 -32q-115 0 -214.5 32t-173 103t-116 183.5t-42.5 272.5zM317 1513v172q0 14 13 25.5t27 11.5h174
q14 0 26.5 -11.5t12.5 -25.5v-172q0 -15 -12.5 -26t-26.5 -11h-174q-14 0 -27 11t-13 26zM417 575q0 -167 55 -241t172 -74q116 0 172 74t56 241v220q0 167 -56 241t-172 74q-117 0 -172 -74t-55 -241v-220zM717 1513v172q0 14 12 25.5t27 11.5h173q14 0 27 -11.5t13 -25.5
v-172q0 -15 -12.5 -26t-27.5 -11h-173q-14 0 -26.5 11t-12.5 26z" />
    <glyph glyph-name="multiply" unicode="&#xd7;" 
d="M201 472q0 12 15 28l220 221l-220 221q-14 15 -15 27q0 9 9 19l118 118q10 9 18 9q13 0 28 -14l222 -222l220 222q15 14 30 14q9 0 19 -9l116 -116q9 -9 9 -19q0 -14 -15 -29l-221 -221l221 -221q15 -16 15 -30q0 -9 -9 -18l-116 -116q-9 -9 -19 -10q-14 0 -30 15
l-220 221l-222 -221q-14 -14 -28 -15q-8 0 -18 10l-118 118q-9 9 -9 18z" />
    <glyph glyph-name="Oslash" unicode="&#xd8;" horiz-adv-x="1286" 
d="M40 4q0 7 6 14l138 192q-40 68 -63 158.5t-23 206.5v220q0 160 42.5 272.5t116 183t173 103t214.5 32.5q91 0 173 -20t151 -65l33 46q9 11 21 23t26 12h180q19 0 19 -20q0 -6 -5 -15l-138 -190q41 -68 63 -157t22 -205v-220q0 -160 -42.5 -272.5t-116 -183.5t-173 -103
t-213.5 -32q-187 0 -322 84l-35 -50q-9 -11 -20.5 -22.5t-27.5 -11.5h-178q-21 0 -21 20zM417 575q0 -9 0.5 -19.5t0.5 -19.5l377 524q-55 50 -151 50q-117 0 -172 -74t-55 -241v-220zM496 308q53 -48 148 -48q116 0 172 74t56 241v220v23v14z" />
    <glyph glyph-name="Ugrave" unicode="&#xd9;" horiz-adv-x="1310" 
d="M123 514v821q0 14 11.5 24.5t25.5 10.5h241q15 0 26 -10.5t11 -24.5v-821q0 -140 46.5 -203.5t169.5 -63.5q63 0 104.5 15.5t66.5 48t36 83.5t11 120v821q0 14 11 24.5t26 10.5h239q15 0 27 -10.5t12 -24.5v-821q0 -157 -42.5 -260t-114.5 -162.5t-168.5 -83.5
t-207.5 -24q-110 0 -207 24t-169 83.5t-113.5 162.5t-41.5 260zM357 1725q0 13 21 13h243q21 0 29 -6.5t20 -20.5l171 -216q7 -10 7 -19q0 -13 -16 -13h-198q-18 0 -25.5 5.5t-18.5 17.5l-225 225q-7 7 -8 14z" />
    <glyph glyph-name="Uacute" unicode="&#xda;" horiz-adv-x="1310" 
d="M123 514v821q0 14 11.5 24.5t25.5 10.5h241q15 0 26 -10.5t11 -24.5v-821q0 -140 46.5 -203.5t169.5 -63.5q63 0 104.5 15.5t66.5 48t36 83.5t11 120v821q0 14 11 24.5t26 10.5h239q15 0 27 -10.5t12 -24.5v-821q0 -157 -42.5 -260t-114.5 -162.5t-168.5 -83.5
t-207.5 -24q-110 0 -207 24t-169 83.5t-113.5 162.5t-41.5 260zM494 1476q0 9 7 19l172 216q13 14 21 20.5t29 6.5h241q21 0 21 -13q0 -7 -9 -14l-224 -225q-10 -11 -18 -17t-27 -6h-197q-16 0 -16 13z" />
    <glyph glyph-name="Ucircumflex" unicode="&#xdb;" horiz-adv-x="1310" 
d="M123 514v821q0 14 11.5 24.5t25.5 10.5h241q15 0 26 -10.5t11 -24.5v-821q0 -140 46.5 -203.5t169.5 -63.5q63 0 104.5 15.5t66.5 48t36 83.5t11 120v821q0 14 11 24.5t26 10.5h239q15 0 27 -10.5t12 -24.5v-821q0 -157 -42.5 -260t-114.5 -162.5t-168.5 -83.5
t-207.5 -24q-110 0 -207 24t-169 83.5t-113.5 162.5t-41.5 260zM285 1478q0 9 8 19l164 216q13 14 21.5 20.5t28.5 6.5h295q21 0 29 -5.5t20 -21.5l162 -216q9 -10 9 -19q0 -13 -18 -13h-190q-18 0 -25.5 4.5t-18.5 18.5l-116 128l-118 -128q-10 -13 -18 -18t-26 -5h-190
q-16 0 -17 13z" />
    <glyph glyph-name="Udieresis" unicode="&#xdc;" horiz-adv-x="1310" 
d="M123 514v821q0 14 11.5 24.5t25.5 10.5h241q15 0 26 -10.5t11 -24.5v-821q0 -140 46.5 -203.5t169.5 -63.5q63 0 104.5 15.5t66.5 48t36 83.5t11 120v821q0 14 11 24.5t26 10.5h239q15 0 27 -10.5t12 -24.5v-821q0 -157 -42.5 -260t-114.5 -162.5t-168.5 -83.5
t-207.5 -24q-110 0 -207 24t-169 83.5t-113.5 162.5t-41.5 260zM328 1513v172q0 14 13 25.5t28 11.5h173q14 0 26 -11.5t12 -25.5v-172q0 -15 -12 -26t-26 -11h-173q-14 0 -27.5 11t-13.5 26zM728 1513v172q0 14 12 25.5t27 11.5h173q14 0 27.5 -11.5t13.5 -25.5v-172
q0 -15 -13 -26t-28 -11h-173q-15 0 -27 11t-12 26z" />
    <glyph glyph-name="Yacute" unicode="&#xdd;" horiz-adv-x="1192" 
d="M37 1342q0 11 7 19.5t23 8.5h265q14 0 23.5 -9.5t13.5 -22.5l199 -520q7 -18 12.5 -22.5t15.5 -4.5q9 0 14.5 4.5t12.5 22.5l199 520q3 13 12.5 22.5t24.5 9.5h265q14 0 22 -8.5t8 -19.5q0 -9 -2 -13l-278 -638q-28 -65 -57.5 -96t-62.5 -46v-512q0 -15 -11 -26t-26 -11
h-242q-14 0 -25.5 11t-11.5 26v512q-33 14 -63 45.5t-58 96.5l-278 638q-2 4 -2 13zM448 1476q0 9 7 19l171 216q13 14 21.5 20.5t29.5 6.5h241q20 0 20 -13q0 -7 -7 -14l-225 -225q-11 -11 -18.5 -17t-25.5 -6h-198q-16 0 -16 13z" />
    <glyph glyph-name="Thorn" unicode="&#xde;" horiz-adv-x="1199" 
d="M129 37v1298q0 35 35 35h242q35 0 34 -35v-109q7 0 24.5 1t36.5 1h39.5h36.5q107 0 208 -20.5t179.5 -72t126.5 -136.5t48 -216v-20q0 -132 -48 -219t-126.5 -138.5t-177.5 -73t-203 -21.5q-37 0 -71 1t-73 3v-278q0 -15 -10 -26t-24 -11h-242q-15 0 -25 11t-10 26z
M440 579q7 0 28 -1t44 -1h44h28q120 0 180 43t60 143v20q0 100 -62 139.5t-178 39.5h-30h-44t-42.5 -1t-27.5 -1v-381z" />
    <glyph glyph-name="germandbls" unicode="&#xdf;" horiz-adv-x="1201" 
d="M105 39v911q0 244 128 360t374 116q230 0 353.5 -105.5t123.5 -300.5v-35q0 -43 -13.5 -81.5t-38 -72t-53.5 -59.5t-63 -40q88 -37 137 -111t49 -167v-39q0 -111 -36.5 -192t-98.5 -134.5t-143.5 -79t-169.5 -25.5q-24 0 -53 2.5t-59 8.5q-15 3 -26 11t-11 24v176
q0 9 4.5 19.5t16.5 10.5h1q17 -2 34.5 -2h34.5q42 0 80 8.5t65.5 29t44 55t16.5 88.5v39q0 70 -46.5 116t-150.5 46h-58q-14 0 -25.5 10t-11.5 25v145q0 15 11.5 25.5t25.5 10.5h58q51 0 85 12.5t55.5 33.5t30.5 49t9 58v35q0 64 -40.5 107t-137.5 43q-62 0 -100.5 -16
t-60.5 -46t-31 -70.5t-9 -87.5v-911q0 -15 -10.5 -27t-24.5 -12h-229q-14 0 -25.5 12t-11.5 27z" />
    <glyph glyph-name="agrave" unicode="&#xe0;" horiz-adv-x="1035" 
d="M74 301v16q0 162 108 236.5t345 74.5h99v67q0 79 -36.5 103t-100.5 24q-44 0 -89.5 -1t-87 -3t-75 -4.5t-54.5 -4.5h-9q-15 0 -24.5 7.5t-9.5 25.5v150q0 31 36 40q51 13 138 26t180 13q100 0 180 -21t135.5 -66.5t85.5 -116.5t30 -172v-658q0 -15 -10.5 -26t-26.5 -11
h-206q-14 0 -25.5 11t-11.5 26v30q-53 -39 -113 -61t-143 -22q-61 0 -117 15t-100.5 52t-71 98t-26.5 152zM184 1423q0 13 20 13h244q21 0 29 -6.5t21 -21.5l169 -216q8 -8 8 -18q0 -12 -17 -13h-197q-18 0 -25.5 6t-18.5 17l-225 224q-8 8 -8 15zM365 301q0 -60 28.5 -76.5
t88.5 -16.5q42 0 79.5 12t70.5 28v204h-105q-95 0 -128.5 -33.5t-33.5 -101.5v-16z" />
    <glyph glyph-name="aacute" unicode="&#xe1;" horiz-adv-x="1035" 
d="M74 301v16q0 162 108 236.5t345 74.5h99v67q0 79 -36.5 103t-100.5 24q-44 0 -89.5 -1t-87 -3t-75 -4.5t-54.5 -4.5h-9q-15 0 -24.5 7.5t-9.5 25.5v150q0 31 36 40q51 13 138 26t180 13q100 0 180 -21t135.5 -66.5t85.5 -116.5t30 -172v-658q0 -15 -10.5 -26t-26.5 -11
h-206q-14 0 -25.5 11t-11.5 26v30q-53 -39 -113 -61t-143 -22q-61 0 -117 15t-100.5 52t-71 98t-26.5 152zM365 301q0 -60 28.5 -76.5t88.5 -16.5q42 0 79.5 12t70.5 28v204h-105q-95 0 -128.5 -33.5t-33.5 -101.5v-16zM367 1174q0 10 7 18l171 216q13 15 21.5 21.5
t29.5 6.5h241q20 0 20 -13q0 -7 -7 -15l-225 -224q-11 -11 -18.5 -17t-26.5 -6h-197q-16 0 -16 13z" />
    <glyph glyph-name="acircumflex" unicode="&#xe2;" horiz-adv-x="1035" 
d="M74 301v16q0 162 108 236.5t345 74.5h99v67q0 79 -36.5 103t-100.5 24q-44 0 -89.5 -1t-87 -3t-75 -4.5t-54.5 -4.5h-9q-15 0 -24.5 7.5t-9.5 25.5v150q0 31 36 40q51 13 138 26t180 13q100 0 180 -21t135.5 -66.5t85.5 -116.5t30 -172v-658q0 -15 -10.5 -26t-26.5 -11
h-206q-14 0 -25.5 11t-11.5 26v30q-53 -39 -113 -61t-143 -22q-61 0 -117 15t-100.5 52t-71 98t-26.5 152zM158 1174q0 10 8 18l164 216q13 15 21 21.5t29 6.5h295q21 0 29 -5.5t20 -22.5l162 -216q8 -8 8 -18q0 -12 -16 -13h-190q-18 0 -26 4.5t-18 18.5l-117 128
l-117 -128q-11 -13 -19 -18t-26 -5h-189q-17 0 -18 13zM365 301q0 -60 28.5 -76.5t88.5 -16.5q42 0 79.5 12t70.5 28v204h-105q-95 0 -128.5 -33.5t-33.5 -101.5v-16z" />
    <glyph glyph-name="atilde" unicode="&#xe3;" horiz-adv-x="1035" 
d="M74 301v16q0 162 108 236.5t345 74.5h99v67q0 79 -36.5 103t-100.5 24q-44 0 -89.5 -1t-87 -3t-75 -4.5t-54.5 -4.5h-9q-15 0 -24.5 7.5t-9.5 25.5v150q0 31 36 40q51 13 138 26t180 13q100 0 180 -21t135.5 -66.5t85.5 -116.5t30 -172v-658q0 -15 -10.5 -26t-26.5 -11
h-206q-14 0 -25.5 11t-11.5 26v30q-53 -39 -113 -61t-143 -22q-61 0 -117 15t-100.5 52t-71 98t-26.5 152zM164 1196v35q0 120 60.5 170t166.5 50q27 0 63 -9.5t66 -29.5l79 -52q25 -14 42 -23t32 -9q21 0 32 9.5t11 39.5v35q0 30 28 30h130q28 0 27 -30v-37
q0 -121 -60 -171t-164 -50q-28 0 -65 10t-67 30l-77 53q-46 34 -76 34q-18 0 -30 -10t-12 -40v-35q0 -31 -28 -31h-130q-28 0 -28 31zM365 301q0 -60 28.5 -76.5t88.5 -16.5q42 0 79.5 12t70.5 28v204h-105q-95 0 -128.5 -33.5t-33.5 -101.5v-16z" />
    <glyph glyph-name="adieresis" unicode="&#xe4;" horiz-adv-x="1035" 
d="M74 301v16q0 162 108 236.5t345 74.5h99v67q0 79 -36.5 103t-100.5 24q-44 0 -89.5 -1t-87 -3t-75 -4.5t-54.5 -4.5h-9q-15 0 -24.5 7.5t-9.5 25.5v150q0 31 36 40q51 13 138 26t180 13q100 0 180 -21t135.5 -66.5t85.5 -116.5t30 -172v-658q0 -15 -10.5 -26t-26.5 -11
h-206q-14 0 -25.5 11t-11.5 26v30q-53 -39 -113 -61t-143 -22q-61 0 -117 15t-100.5 52t-71 98t-26.5 152zM202 1217v171q0 14 13.5 25.5t27.5 11.5h174q14 0 26 -11t12 -26v-171q0 -15 -12 -26t-26 -11h-174q-14 0 -27.5 11t-13.5 26zM365 301q0 -60 28.5 -76.5t88.5 -16.5
q42 0 79.5 12t70.5 28v204h-105q-95 0 -128.5 -33.5t-33.5 -101.5v-16zM603 1217v171q0 14 11.5 25.5t27.5 11.5h172q15 0 28 -11t13 -26v-171q0 -15 -12.5 -26t-28.5 -11h-172q-15 0 -27 11t-12 26z" />
    <glyph glyph-name="aring" unicode="&#xe5;" horiz-adv-x="1035" 
d="M74 301v16q0 162 108 236.5t345 74.5h99v67q0 79 -36.5 103t-100.5 24q-44 0 -89.5 -1t-87 -3t-75 -4.5t-54.5 -4.5h-9q-15 0 -24.5 7.5t-9.5 25.5v150q0 31 36 40q51 13 138 26t180 13q100 0 180 -21t135.5 -66.5t85.5 -116.5t30 -172v-658q0 -15 -10.5 -26t-26.5 -11
h-206q-14 0 -25.5 11t-11.5 26v30q-53 -39 -113 -61t-143 -22q-61 0 -117 15t-100.5 52t-71 98t-26.5 152zM306 1366q0 44 16.5 84t46 69t69 45.5t84.5 16.5q44 0 83.5 -16.5t69 -45.5t46 -69t16.5 -84t-16.5 -84t-46 -69t-69 -46t-83.5 -17t-84 17t-69.5 46t-46 68.5
t-16.5 84.5zM365 301q0 -60 28.5 -76.5t88.5 -16.5q42 0 79.5 12t70.5 28v204h-105q-95 0 -128.5 -33.5t-33.5 -101.5v-16zM440 1366q0 -33 24.5 -57.5t57.5 -24.5t57 24.5t24 57.5q0 34 -24.5 57.5t-56.5 23.5q-33 0 -57.5 -24t-24.5 -57z" />
    <glyph glyph-name="ae" unicode="&#xe6;" horiz-adv-x="1623" 
d="M77 317v21q0 80 33.5 135.5t95 90.5t150.5 49.5t198 14.5h78v17q0 104 -32 140.5t-111 36.5q-43 0 -88 -1t-86.5 -3t-75 -4.5t-51.5 -4.5h-5q-32 0 -32 33v146q0 35 37 44q24 6 58 13t74.5 13t84 9.5t84.5 3.5q202 0 313 -111q55 53 125 82t166 29q116 0 201 -34
t139.5 -96t80 -147t25.5 -187v-118q0 -15 -12 -27t-27 -12h-571v-76q0 -79 56 -110.5t158 -31.5q26 0 69.5 1t90 3.5t90 5.5t69.5 5h9q29 0 29 -29v-133q0 -21 -7 -31t-28 -17q-77 -26 -175.5 -39.5t-188.5 -13.5q-161 0 -260 84q-74 -40 -168 -62t-191 -22q-78 0 -151 17
t-129 58t-90.5 104.5t-34.5 153.5zM361 317q0 -69 44.5 -95.5t101.5 -26.5q37 0 72 5.5t63 19.5v246h-88q-98 0 -145.5 -28t-47.5 -100v-21zM929 612h325v33q0 90 -37 143t-126 53q-85 0 -123.5 -53t-38.5 -143v-33z" />
    <glyph glyph-name="ccedilla" unicode="&#xe7;" horiz-adv-x="873" 
d="M83 450v155q0 227 117 346.5t312 119.5q83 0 145 -9.5t101 -18.5q20 -5 29 -13t9 -29v-164q0 -14 -10 -22.5t-25 -8.5h-3q-52 5 -99 8.5t-126 3.5q-32 0 -59.5 -10t-47.5 -35t-32 -66.5t-12 -101.5v-155q0 -61 12 -102.5t32 -66.5t47.5 -35t59.5 -10q79 0 126 3.5t99 8.5
h3q15 0 25 -8t10 -22v-165q0 -21 -9 -29t-29 -13q-39 -9 -100.5 -18t-145.5 -9q-195 0 -312 119.5t-117 346.5zM142 -326q0 6 9 18l171 216q11 15 20.5 21t30.5 6h243q20 0 20 -12q0 -8 -8 -15l-227 -225q-12 -11 -18.5 -16.5t-25.5 -5.5h-197q-18 0 -18 13z" />
    <glyph glyph-name="egrave" unicode="&#xe8;" horiz-adv-x="1087" 
d="M83 457v129q0 111 31.5 201.5t91.5 153t146 96.5t197 34q114 0 199 -37t142.5 -101.5t85.5 -153t28 -193.5v-107q0 -44 -38 -44h-588v-4q0 -39 9 -75.5t31 -64t58 -44.5t92 -17q44 0 94 2t98.5 4t91 5.5t70.5 5.5h5q35 0 35 -29v-141q0 -22 -7 -33t-32 -16
q-88 -23 -173 -33.5t-205 -10.5q-82 0 -165 24t-149.5 79t-107 146t-40.5 224zM260 1423q0 13 20 13h244q20 0 28.5 -6.5t20.5 -21.5l169 -216q9 -8 9 -18q0 -12 -17 -13h-198q-18 0 -25.5 6t-18.5 17l-225 224q-7 8 -7 15zM378 619h336v7q0 104 -44.5 155t-122.5 51
q-77 0 -123 -52t-46 -154v-7z" />
    <glyph glyph-name="eacute" unicode="&#xe9;" horiz-adv-x="1087" 
d="M83 457v129q0 111 31.5 201.5t91.5 153t146 96.5t197 34q114 0 199 -37t142.5 -101.5t85.5 -153t28 -193.5v-107q0 -44 -38 -44h-588v-4q0 -39 9 -75.5t31 -64t58 -44.5t92 -17q44 0 94 2t98.5 4t91 5.5t70.5 5.5h5q35 0 35 -29v-141q0 -22 -7 -33t-32 -16
q-88 -23 -173 -33.5t-205 -10.5q-82 0 -165 24t-149.5 79t-107 146t-40.5 224zM374 1174q0 10 8 18l171 216q12 15 20.5 21.5t29.5 6.5h241q21 0 21 -13q0 -7 -8 -15l-225 -224q-11 -11 -18 -17t-26 -6h-197q-17 0 -17 13zM378 619h336v7q0 104 -44.5 155t-122.5 51
q-77 0 -123 -52t-46 -154v-7z" />
    <glyph glyph-name="ecircumflex" unicode="&#xea;" horiz-adv-x="1087" 
d="M83 457v129q0 111 31.5 201.5t91.5 153t146 96.5t197 34q114 0 199 -37t142.5 -101.5t85.5 -153t28 -193.5v-107q0 -44 -38 -44h-588v-4q0 -39 9 -75.5t31 -64t58 -44.5t92 -17q44 0 94 2t98.5 4t91 5.5t70.5 5.5h5q35 0 35 -29v-141q0 -22 -7 -33t-32 -16
q-88 -23 -173 -33.5t-205 -10.5q-82 0 -165 24t-149.5 79t-107 146t-40.5 224zM176 1174q0 10 7 18l163 216q13 15 21.5 21.5t28.5 6.5h295q21 0 29 -5.5t21 -22.5l163 -216q7 -8 7 -18q0 -12 -17 -13h-190q-18 0 -26 4.5t-18 18.5l-116 128l-118 -128q-11 -13 -18.5 -18
t-25.5 -5h-190q-16 0 -16 13zM378 619h336v7q0 104 -44.5 155t-122.5 51q-77 0 -123 -52t-46 -154v-7z" />
    <glyph glyph-name="edieresis" unicode="&#xeb;" horiz-adv-x="1087" 
d="M83 457v129q0 111 31.5 201.5t91.5 153t146 96.5t197 34q114 0 199 -37t142.5 -101.5t85.5 -153t28 -193.5v-107q0 -44 -38 -44h-588v-4q0 -39 9 -75.5t31 -64t58 -44.5t92 -17q44 0 94 2t98.5 4t91 5.5t70.5 5.5h5q35 0 35 -29v-141q0 -22 -7 -33t-32 -16
q-88 -23 -173 -33.5t-205 -10.5q-82 0 -165 24t-149.5 79t-107 146t-40.5 224zM214 1213v171q0 15 12.5 26t28.5 11h173q14 0 26 -11t12 -26v-171q0 -14 -11.5 -25.5t-26.5 -11.5h-173q-15 0 -28 11t-13 26zM378 619h336v7q0 104 -44.5 155t-122.5 51q-77 0 -123 -52
t-46 -154v-7zM614 1213v171q0 15 12 26t26 11h174q15 0 28 -11t13 -26v-171q0 -14 -13 -25.5t-28 -11.5h-174q-14 0 -26 11t-12 26z" />
    <glyph glyph-name="igrave" unicode="&#xec;" horiz-adv-x="533" 
d="M-63 1423q0 13 21 13h243q20 0 29 -6.5t21 -21.5l169 -216q9 -12 9 -18q0 -12 -18 -13h-197q-18 0 -25.5 6t-19.5 17l-224 224q-7 8 -8 15zM118 39v978q0 14 12 27t27 13h221q14 0 26.5 -12.5t12.5 -27.5v-978q0 -15 -12.5 -27t-26.5 -12h-221q-15 0 -27 12t-12 27z" />
    <glyph glyph-name="iacute" unicode="&#xed;" horiz-adv-x="533" 
d="M114 1174q0 6 9 18l172 216q11 15 20 21.5t30 6.5h241q21 0 21 -13q0 -7 -8 -15l-225 -224q-10 -11 -18 -17t-26 -6h-198q-18 0 -18 13zM118 39v978q0 14 12 27t27 13h221q14 0 26.5 -12.5t12.5 -27.5v-978q0 -15 -12.5 -27t-26.5 -12h-221q-15 0 -27 12t-12 27z" />
    <glyph glyph-name="icircumflex" unicode="&#xee;" horiz-adv-x="533" 
d="M-100 1174q0 10 8 18l164 216q13 15 21.5 21.5t28.5 6.5h295q20 0 28.5 -5.5t20.5 -22.5l162 -216q8 -8 8 -18q0 -12 -17 -13h-190q-18 0 -25.5 4.5t-18.5 18.5l-116 128l-118 -128q-11 -13 -18.5 -18t-25.5 -5h-190q-16 0 -17 13zM118 39v978q0 14 12 27t27 13h221
q14 0 26.5 -12.5t12.5 -27.5v-978q0 -15 -12.5 -27t-26.5 -12h-221q-15 0 -27 12t-12 27z" />
    <glyph glyph-name="idieresis" unicode="&#xef;" horiz-adv-x="533" 
d="M-57 1213v171q0 15 12.5 26t28.5 11h173q14 0 26 -11t12 -26v-171q0 -14 -12 -25.5t-26 -11.5h-173q-15 0 -28 11t-13 26zM118 39v978q0 14 12 27t27 13h221q14 0 26.5 -12.5t12.5 -27.5v-978q0 -15 -12.5 -27t-26.5 -12h-221q-15 0 -27 12t-12 27zM343 1213v171
q0 15 12 26t27 11h172q15 0 28.5 -11t13.5 -26v-171q0 -14 -13 -25.5t-29 -11.5h-172q-15 0 -27 11t-12 26z" />
    <glyph glyph-name="eth" unicode="&#xf0;" horiz-adv-x="1085" 
d="M81 477v58q0 248 119.5 370t343.5 122q20 0 46 -2.5t46 -14.5q-31 38 -84.5 77t-122.5 72l-130 -99q-13 -11 -25 -12q-10 0 -19 12l-51 55q-5 5 -5 15q0 16 19 29l75 58q-22 7 -45 14t-46 13q-10 3 -19 9t-9 17q0 7 2 11l45 126q8 20 26 19q9 0 15 -1q59 -15 111.5 -31.5
t101.5 -37.5l146 111q9 7 24 7t22 -9l50 -53q7 -7 7 -15q0 -11 -18 -25l-98 -76q100 -53 173.5 -124t123.5 -163.5t74.5 -209.5t24.5 -264v-58q0 -248 -117.5 -370.5t-341.5 -122.5q-234 0 -349 127.5t-115 365.5zM378 477q0 -129 40.5 -186t126.5 -57q87 0 124.5 57
t37.5 186v58q0 128 -38.5 185.5t-124.5 57.5q-87 0 -126.5 -57.5t-39.5 -185.5v-58z" />
    <glyph glyph-name="ntilde" unicode="&#xf1;" horiz-adv-x="1127" 
d="M111 39v981q0 14 10.5 25.5t26.5 11.5h206q14 0 25.5 -11.5t11.5 -25.5v-45q75 53 143.5 74.5t156.5 21.5q100 0 163.5 -32.5t99.5 -89.5t49.5 -133.5t13.5 -163.5v-613q0 -15 -11.5 -27t-27.5 -12h-222q-14 0 -25.5 12t-11.5 27v613q0 48 -6 81.5t-20 53.5t-41 28.5
t-70 8.5q-40 0 -82.5 -16.5t-89.5 -42.5v-726q0 -15 -11.5 -27t-25.5 -12h-224q-14 0 -26 12t-12 27zM190 1196v35q0 120 60.5 170t166.5 50q28 0 63.5 -9.5t64.5 -29.5l80 -52q24 -14 41.5 -23t31.5 -9q21 0 32 9.5t11 39.5v35q0 30 29 30h129q28 0 28 -30v-37
q0 -121 -60 -171t-165 -50q-28 0 -64.5 10t-65.5 30l-78 53q-46 34 -76 34q-18 0 -30 -10t-12 -40v-35q0 -31 -28 -31h-130q-28 0 -28 31z" />
    <glyph glyph-name="ograve" unicode="&#xf2;" horiz-adv-x="1085" 
d="M81 463v128q0 111 30.5 199.5t89.5 150.5t144.5 96t198.5 34q112 0 198 -34t144 -96t88 -150.5t30 -199.5v-128q0 -111 -30 -199t-88 -150.5t-144 -96t-198 -33.5q-113 0 -198.5 33.5t-144.5 96t-89.5 150.5t-30.5 199zM221 1423q0 13 20 13h244q21 0 29 -6.5t21 -21.5
l169 -216q8 -8 8 -18q0 -12 -17 -13h-197q-18 0 -26 6t-18 17l-225 224q-8 8 -8 15zM378 463q0 -113 42.5 -170t123.5 -57q163 0 163 227v128q0 225 -163 225q-81 0 -123.5 -56t-42.5 -169v-128z" />
    <glyph glyph-name="oacute" unicode="&#xf3;" horiz-adv-x="1085" 
d="M81 463v128q0 111 30.5 199.5t89.5 150.5t144.5 96t198.5 34q112 0 198 -34t144 -96t88 -150.5t30 -199.5v-128q0 -111 -30 -199t-88 -150.5t-144 -96t-198 -33.5q-113 0 -198.5 33.5t-144.5 96t-89.5 150.5t-30.5 199zM367 1174q0 10 7 18l171 216q13 15 21.5 21.5
t29.5 6.5h241q20 0 20 -13q0 -7 -7 -15l-225 -224q-11 -11 -18.5 -17t-26.5 -6h-197q-16 0 -16 13zM378 463q0 -113 42.5 -170t123.5 -57q163 0 163 227v128q0 225 -163 225q-81 0 -123.5 -56t-42.5 -169v-128z" />
    <glyph glyph-name="ocircumflex" unicode="&#xf4;" horiz-adv-x="1085" 
d="M81 463v128q0 111 30.5 199.5t89.5 150.5t144.5 96t198.5 34q112 0 198 -34t144 -96t88 -150.5t30 -199.5v-128q0 -111 -30 -199t-88 -150.5t-144 -96t-198 -33.5q-113 0 -198.5 33.5t-144.5 96t-89.5 150.5t-30.5 199zM174 1174q0 10 7 18l164 216q12 15 20.5 21.5
t28.5 6.5h295q21 0 29 -5.5t21 -22.5l162 -216q8 -8 8 -18q0 -12 -17 -13h-190q-18 0 -25.5 4.5t-18.5 18.5l-116 128l-118 -128q-11 -13 -18.5 -18t-25.5 -5h-190q-16 0 -16 13zM378 463q0 -113 42.5 -170t123.5 -57q163 0 163 227v128q0 225 -163 225q-81 0 -123.5 -56
t-42.5 -169v-128z" />
    <glyph glyph-name="otilde" unicode="&#xf5;" horiz-adv-x="1085" 
d="M81 463v128q0 111 30.5 199.5t89.5 150.5t144.5 96t198.5 34q112 0 198 -34t144 -96t88 -150.5t30 -199.5v-128q0 -111 -30 -199t-88 -150.5t-144 -96t-198 -33.5q-113 0 -198.5 33.5t-144.5 96t-89.5 150.5t-30.5 199zM171 1196v35q0 120 61 170t166 50q28 0 64 -9.5
t65 -29.5l80 -52q24 -14 41 -23t32 -9q21 0 32 9.5t11 39.5v35q0 30 29 30h129q28 0 28 -30v-37q0 -121 -60 -171t-165 -50q-28 0 -65 10t-66 30l-78 53q-46 34 -75 34q-18 0 -30.5 -10t-12.5 -40v-35q0 -31 -27 -31h-131q-28 0 -28 31zM378 463q0 -113 42.5 -170t123.5 -57
q163 0 163 227v128q0 225 -163 225q-81 0 -123.5 -56t-42.5 -169v-128z" />
    <glyph glyph-name="odieresis" unicode="&#xf6;" horiz-adv-x="1085" 
d="M81 463v128q0 111 30.5 199.5t89.5 150.5t144.5 96t198.5 34q112 0 198 -34t144 -96t88 -150.5t30 -199.5v-128q0 -111 -30 -199t-88 -150.5t-144 -96t-198 -33.5q-113 0 -198.5 33.5t-144.5 96t-89.5 150.5t-30.5 199zM214 1213v171q0 15 12.5 26t28.5 11h173
q14 0 26 -11t12 -26v-171q0 -14 -11.5 -25.5t-26.5 -11.5h-173q-15 0 -28 11t-13 26zM378 463q0 -113 42.5 -170t123.5 -57q163 0 163 227v128q0 225 -163 225q-81 0 -123.5 -56t-42.5 -169v-128zM614 1213v171q0 15 12 26t26 11h174q15 0 28 -11t13 -26v-171
q0 -14 -13 -25.5t-28 -11.5h-174q-14 0 -26 11t-12 26z" />
    <glyph glyph-name="divide" unicode="&#xf7;" 
d="M171 638v166q0 14 11.5 21.5t25.5 7.5h773q14 0 25 -7.5t11 -21.5v-166q0 -14 -11 -22t-25 -8h-773q-14 0 -25.5 7.5t-11.5 22.5zM448 192v206q0 14 11 25.5t26 11.5h217q14 0 25.5 -11t11.5 -26v-206q0 -15 -11 -25t-26 -10h-217q-14 0 -25.5 10t-11.5 25zM448 1017v207
q0 14 11 25.5t26 11.5h217q14 0 25.5 -11.5t11.5 -25.5v-207q0 -14 -11 -25t-26 -11h-217q-14 0 -25.5 11t-11.5 25z" />
    <glyph glyph-name="oslash" unicode="&#xf8;" horiz-adv-x="1085" 
d="M53 -50q0 11 8 20l122 165q-102 123 -102 328v128q0 111 30.5 199.5t89.5 150.5t144.5 96t198.5 34q165 0 276 -74l74 102q9 13 14.5 15.5t14.5 2.5h92q15 0 15 -15q0 -12 -7 -20l-119 -160q101 -124 100 -331v-128q0 -111 -30 -199t-88 -150.5t-144 -96t-198 -33.5
q-166 0 -277 73l-77 -103q-9 -12 -15 -15.5t-15 -3.5h-92q-14 0 -15 15zM378 463q0 -15 1 -30t3 -29l272 370q-42 42 -110 42q-81 0 -123.5 -56t-42.5 -169v-128zM431 280q42 -44 113 -44q163 0 163 227v128q0 15 -0.5 30t-2.5 30z" />
    <glyph glyph-name="ugrave" unicode="&#xf9;" horiz-adv-x="1127" 
d="M111 404v613q0 14 12 27t26 13h224q14 0 25.5 -12.5t11.5 -27.5v-613q0 -48 5 -81t20 -54t41.5 -29t68.5 -8q41 0 83 17t91 43v725q0 14 11 27t26 13h222q15 0 27 -12.5t12 -27.5v-980q0 -15 -11 -26t-25 -11h-207q-14 0 -25.5 11t-11.5 26v44q-75 -53 -143 -74t-158 -21
q-99 0 -162.5 32.5t-99 89t-49.5 133t-14 163.5zM241 1423q0 13 21 13h243q21 0 29 -6.5t20 -21.5l170 -216q8 -8 8 -18q0 -12 -16 -13h-198q-18 0 -25.5 6t-19.5 17l-225 224q-7 8 -7 15z" />
    <glyph glyph-name="uacute" unicode="&#xfa;" horiz-adv-x="1127" 
d="M111 404v613q0 14 12 27t26 13h224q14 0 25.5 -12.5t11.5 -27.5v-613q0 -48 5 -81t20 -54t41.5 -29t68.5 -8q41 0 83 17t91 43v725q0 14 11 27t26 13h222q15 0 27 -12.5t12 -27.5v-980q0 -15 -11 -26t-25 -11h-207q-14 0 -25.5 11t-11.5 26v44q-75 -53 -143 -74t-158 -21
q-99 0 -162.5 32.5t-99 89t-49.5 133t-14 163.5zM411 1174q0 10 7 18l172 216q12 15 20.5 21.5t29.5 6.5h241q20 0 20 -13q0 -7 -7 -15l-225 -224q-11 -11 -18 -17t-26 -6h-197q-17 0 -17 13z" />
    <glyph glyph-name="ucircumflex" unicode="&#xfb;" horiz-adv-x="1127" 
d="M111 404v613q0 14 12 27t26 13h224q14 0 25.5 -12.5t11.5 -27.5v-613q0 -48 5 -81t20 -54t41.5 -29t68.5 -8q41 0 83 17t91 43v725q0 14 11 27t26 13h222q15 0 27 -12.5t12 -27.5v-980q0 -15 -11 -26t-25 -11h-207q-14 0 -25.5 11t-11.5 26v44q-75 -53 -143 -74t-158 -21
q-99 0 -162.5 32.5t-99 89t-49.5 133t-14 163.5zM194 1174q0 10 7 18l164 216q13 15 21 21.5t29 6.5h294q21 0 29 -5.5t22 -22.5l162 -216q7 -8 7 -18q0 -12 -16 -13h-190q-18 0 -26 4.5t-18 18.5l-117 128l-117 -128q-11 -13 -19 -18t-26 -5h-190q-16 0 -16 13z" />
    <glyph glyph-name="udieresis" unicode="&#xfc;" horiz-adv-x="1127" 
d="M111 404v613q0 14 12 27t26 13h224q14 0 25.5 -12.5t11.5 -27.5v-613q0 -48 5 -81t20 -54t41.5 -29t68.5 -8q41 0 83 17t91 43v725q0 14 11 27t26 13h222q15 0 27 -12.5t12 -27.5v-980q0 -15 -11 -26t-25 -11h-207q-14 0 -25.5 11t-11.5 26v44q-75 -53 -143 -74t-158 -21
q-99 0 -162.5 32.5t-99 89t-49.5 133t-14 163.5zM238 1213v171q0 15 13 26t27 11h174q14 0 26 -11t12 -26v-171q0 -14 -12 -25.5t-26 -11.5h-174q-14 0 -27 11t-13 26zM638 1213v171q0 15 12 26t27 11h173q14 0 27 -11t13 -26v-171q0 -14 -12.5 -25.5t-27.5 -11.5h-173
q-15 0 -27 11t-12 26z" />
    <glyph glyph-name="yacute" unicode="&#xfd;" horiz-adv-x="1090" 
d="M39 1027q0 30 37 30h244q15 0 23.5 -10.5t12.5 -24.5l166 -694q7 -35 22 -35h1h8h8l171 729q3 14 13.5 24.5t24.5 10.5h245q15 0 25 -9.5t10 -24.5q0 -3 -1 -4.5t-1 -5.5l-309 -1085q-23 -76 -50 -132t-71.5 -93t-113 -56.5t-168.5 -19.5q-26 0 -57.5 3t-63 7t-59 9.5
t-44.5 10.5q-14 5 -26 12t-12 21v150q0 14 10.5 24.5t26.5 10.5h3q23 -2 53 -3.5t62.5 -5t62.5 -5t53 -1.5q49 0 77 20t44 76l17 57h-28q-26 0 -49 4.5t-45 21t-41 50.5t-36 95l-244 829q-1 6 -1 14zM411 1174q0 10 7 18l172 216q12 15 20.5 21.5t29.5 6.5h241q20 0 20 -13
q0 -7 -7 -15l-225 -224q-11 -11 -18 -17t-26 -6h-197q-17 0 -17 13z" />
    <glyph glyph-name="thorn" unicode="&#xfe;" horiz-adv-x="1099" 
d="M111 -322v1699q0 14 9.5 25.5t25.5 11.5h228q15 0 25.5 -11.5t10.5 -25.5v-315q35 4 74.5 6.5t77.5 2.5q218 0 339.5 -122.5t121.5 -352.5v-137q0 -220 -115 -347.5t-346 -127.5q-29 0 -75.5 5.5t-76.5 12.5v-324q0 -15 -10.5 -26t-25.5 -11h-225q-14 0 -26 10.5
t-12 26.5zM410 239q31 -3 72.5 -6.5t79.5 -3.5q89 0 125.5 62.5t36.5 167.5v137q0 105 -36 166.5t-126 61.5q-45 0 -81 -4t-71 -7v-574z" />
    <glyph glyph-name="ydieresis" unicode="&#xff;" horiz-adv-x="1090" 
d="M39 1027q0 30 37 30h244q15 0 23.5 -10.5t12.5 -24.5l166 -694q7 -35 22 -35h1h8h8l171 729q3 14 13.5 24.5t24.5 10.5h245q15 0 25 -9.5t10 -24.5q0 -3 -1 -4.5t-1 -5.5l-309 -1085q-23 -76 -50 -132t-71.5 -93t-113 -56.5t-168.5 -19.5q-26 0 -57.5 3t-63 7t-59 9.5
t-44.5 10.5q-14 5 -26 12t-12 21v150q0 14 10.5 24.5t26.5 10.5h3q23 -2 53 -3.5t62.5 -5t62.5 -5t53 -1.5q49 0 77 20t44 76l17 57h-28q-26 0 -49 4.5t-45 21t-41 50.5t-36 95l-244 829q-1 6 -1 14zM225 1213v171q0 15 13 26t28 11h172q15 0 27 -11t12 -26v-171
q0 -14 -11.5 -25.5t-27.5 -11.5h-172q-15 0 -28 11t-13 26zM625 1213v171q0 15 12 26t26 11h174q14 0 27.5 -11t13.5 -26v-171q0 -14 -13.5 -25.5t-27.5 -11.5h-174q-14 0 -26 11t-12 26z" />
    <glyph glyph-name="OE" unicode="&#x152;" horiz-adv-x="1818" 
d="M98 575v220q0 160 42.5 272.5t116 183t173 103t214.5 32.5q98 0 182.5 -23t154.5 -72q65 56 154 74.5t188 18.5q76 0 131 -2.5t98 -6t73 -7.5t54 -8q37 -6 37 -37v-171q0 -14 -11 -25.5t-26 -11.5h-374q-65 0 -91.5 -26.5t-26.5 -98.5v-133q0 -9 1 -16.5t1 -16.5h475
q14 0 25.5 -11t11.5 -26v-175q0 -14 -11 -25.5t-26 -11.5h-475q0 -16 -1 -32t-1 -31v-132q0 -72 26.5 -98.5t91.5 -26.5h374q15 0 26 -11.5t11 -25.5v-172q0 -33 -37 -39q-47 -7 -127.5 -15t-230.5 -8q-100 0 -189 18.5t-151 74.5q-70 -49 -156 -71t-181 -22
q-115 0 -214.5 32t-173 103t-116 183.5t-42.5 272.5zM417 575q0 -167 55 -241t172 -74q116 0 172 74t56 241v220q0 167 -56 241t-172 74q-117 0 -172 -74t-55 -241v-220z" />
    <glyph glyph-name="oe" unicode="&#x153;" horiz-adv-x="1717" 
d="M83 463v128q0 111 30.5 199.5t89.5 150.5t144.5 96t197.5 34q102 0 180.5 -33.5t136.5 -89.5q60 59 139 91t179 32q114 0 198.5 -37t142 -101.5t86 -153t28.5 -193.5v-107q0 -44 -38 -44h-589v-9v-6q2 -38 12 -72.5t32.5 -60t58.5 -41.5t87 -16q44 0 94 2t98.5 4
t91.5 5.5t70 5.5h6q35 0 34 -29v-141q0 -22 -7 -33t-32 -16q-88 -23 -172.5 -33.5t-204.5 -10.5q-82 0 -166.5 26.5t-149.5 93.5q-59 -60 -137 -90t-178 -30q-112 0 -197.5 33.5t-144.5 96t-89.5 150.5t-30.5 199zM382 463q0 -227 163 -227q164 0 164 227v128
q0 225 -164 225q-163 0 -163 -225v-128zM1008 619h336v7q0 104 -44 155t-122 51q-76 0 -123 -50t-47 -150v-13z" />
    <glyph glyph-name="Ydieresis" unicode="&#x178;" horiz-adv-x="1192" 
d="M37 1342q0 11 7 19.5t23 8.5h265q14 0 23.5 -9.5t13.5 -22.5l199 -520q7 -18 12.5 -22.5t15.5 -4.5q9 0 14.5 4.5t12.5 22.5l199 520q3 13 12.5 22.5t24.5 9.5h265q14 0 22 -8.5t8 -19.5q0 -9 -2 -13l-278 -638q-28 -65 -57.5 -96t-62.5 -46v-512q0 -15 -11 -26t-26 -11
h-242q-14 0 -25.5 11t-11.5 26v512q-33 14 -63 45.5t-58 96.5l-278 638q-2 4 -2 13zM269 1508v171q0 15 13 26t28 11h173q15 0 27 -11t12 -26v-171q0 -15 -12 -26t-27 -11h-173q-15 0 -28 11t-13 26zM669 1508v171q0 15 12 26t26 11h174q15 0 28 -11t13 -26v-171
q0 -15 -13 -26t-28 -11h-174q-14 0 -26 11t-12 26z" />
    <glyph glyph-name="circumflex" unicode="&#x2c6;" horiz-adv-x="816" 
d="M40 1174q0 10 8 18l164 216q13 15 21 21.5t29 6.5h294q21 0 29 -5.5t22 -22.5l162 -216q7 -8 7 -18q0 -12 -16 -13h-190q-18 0 -26 4.5t-18 18.5l-116 128l-118 -128q-11 -13 -18.5 -18t-26.5 -5h-190q-17 0 -17 13z" />
    <glyph glyph-name="tilde" unicode="&#x2dc;" horiz-adv-x="915" 
d="M81 1196v35q0 120 60.5 170t166.5 50q28 0 64 -9.5t64 -29.5l80 -52q24 -14 41.5 -23t32.5 -9q20 0 31 9.5t11 39.5v35q0 30 30 30h129q28 0 27 -30v-37q0 -121 -60 -171t-165 -50q-28 0 -64.5 10t-65.5 30l-78 53q-46 34 -75 34q-18 0 -30.5 -10t-12.5 -40v-35
q0 -31 -28 -31h-130q-28 0 -28 31z" />
    <glyph glyph-name="uni2000" unicode="&#x2000;" horiz-adv-x="933" 
 />
    <glyph glyph-name="uni2001" unicode="&#x2001;" horiz-adv-x="1866" 
 />
    <glyph glyph-name="uni2002" unicode="&#x2002;" horiz-adv-x="933" 
 />
    <glyph glyph-name="uni2003" unicode="&#x2003;" horiz-adv-x="1866" 
 />
    <glyph glyph-name="uni2004" unicode="&#x2004;" horiz-adv-x="622" 
 />
    <glyph glyph-name="uni2005" unicode="&#x2005;" horiz-adv-x="466" 
 />
    <glyph glyph-name="uni2006" unicode="&#x2006;" horiz-adv-x="311" 
 />
    <glyph glyph-name="uni2007" unicode="&#x2007;" horiz-adv-x="311" 
 />
    <glyph glyph-name="uni2008" unicode="&#x2008;" horiz-adv-x="233" 
 />
    <glyph glyph-name="uni2009" unicode="&#x2009;" horiz-adv-x="373" 
 />
    <glyph glyph-name="uni200A" unicode="&#x200a;" horiz-adv-x="103" 
 />
    <glyph glyph-name="uni2010" unicode="&#x2010;" horiz-adv-x="556" 
d="M63 487v147q0 15 11 25t26 10h357q15 0 26 -10t11 -25v-147q0 -15 -11 -24t-26 -9h-357q-14 0 -25.5 9t-11.5 24z" />
    <glyph glyph-name="uni2011" unicode="&#x2011;" horiz-adv-x="556" 
d="M63 487v147q0 15 11 25t26 10h357q15 0 26 -10t11 -25v-147q0 -15 -11 -24t-26 -9h-357q-14 0 -25.5 9t-11.5 24z" />
    <glyph glyph-name="figuredash" unicode="&#x2012;" horiz-adv-x="556" 
d="M63 487v147q0 15 11 25t26 10h357q15 0 26 -10t11 -25v-147q0 -15 -11 -24t-26 -9h-357q-14 0 -25.5 9t-11.5 24z" />
    <glyph glyph-name="endash" unicode="&#x2013;" horiz-adv-x="725" 
d="M51 463v145q0 15 10.5 26t24.5 11h554q14 0 25.5 -11t11.5 -26v-145q0 -15 -11.5 -25t-25.5 -10h-554q-35 0 -35 35z" />
    <glyph glyph-name="emdash" unicode="&#x2014;" horiz-adv-x="967" 
d="M51 463v145q0 15 10.5 26t24.5 11h795q15 0 26 -11t11 -26v-145q0 -15 -11 -25t-26 -10h-795q-35 0 -35 35z" />
    <glyph glyph-name="quoteleft" unicode="&#x2018;" horiz-adv-x="466" 
d="M42 960q0 4 4 15l138 404q8 18 14 26.5t22 8.5h186q16 -1 16 -19v-8.5t-2 -7.5l-100 -404q-7 -35 -36 -35h-219q-23 0 -23 20z" />
    <glyph glyph-name="quoteright" unicode="&#x2019;" horiz-adv-x="466" 
d="M44 958v8.5t2 8.5l100 404q7 35 37 35h218q23 0 23 -21q0 -3 -4 -14l-138 -404q-8 -18 -14 -26.5t-21 -8.5h-186q-16 0 -17 18z" />
    <glyph glyph-name="quotesinglbase" unicode="&#x201a;" horiz-adv-x="466" 
d="M16 -153q0 4 1 4.5t1 4.5l119 413q9 35 37 35h224q28 0 28 -22q0 -6 -4 -13l-177 -413q-7 -14 -13.5 -25.5t-21.5 -11.5h-162q-13 0 -22.5 8.5t-9.5 19.5z" />
    <glyph glyph-name="quotedblleft" unicode="&#x201c;" horiz-adv-x="871" 
d="M42 960q0 4 4 15l138 404q8 18 14 26.5t22 8.5h186q16 -1 16 -19v-8.5t-2 -7.5l-100 -404q-7 -35 -36 -35h-219q-23 0 -23 20zM448 960q0 4 4 15l136 404q10 35 35 35h188q17 -1 17 -19v-8.5t-2 -7.5l-100 -404q-7 -35 -37 -35h-219q-23 0 -22 20z" />
    <glyph glyph-name="quotedblright" unicode="&#x201d;" horiz-adv-x="871" 
d="M44 958v8.5t2 8.5l102 404q7 35 36 35h217q23 0 23 -21q0 -3 -4 -14l-136 -404q-11 -35 -36 -35h-187q-16 0 -17 18zM450 958v8.5t2 8.5l99 404q7 35 37 35h219q23 0 23 -21q0 -3 -4 -14l-138 -404q-8 -18 -14.5 -26.5t-21.5 -8.5h-186q-16 0 -16 18z" />
    <glyph glyph-name="quotedblbase" unicode="&#x201e;" horiz-adv-x="871" 
d="M16 -153q0 4 1 4.5t1 4.5l119 413q9 35 37 35h224q28 0 28 -22q0 -6 -4 -13l-177 -413q-7 -14 -13.5 -25.5t-21.5 -11.5h-162q-13 0 -22.5 8.5t-9.5 19.5zM438 -153q0 4 1 4.5t1 4.5l119 413q9 35 37 35h224q28 0 28 -22q0 -6 -4 -13l-177 -413q-7 -14 -13.5 -25.5
t-21.5 -11.5h-162q-13 0 -22.5 8.5t-9.5 19.5z" />
    <glyph glyph-name="bullet" unicode="&#x2022;" horiz-adv-x="770" 
d="M77 677q0 65 24 119.5t66.5 97t98.5 67t119 24.5q65 0 120.5 -24.5t97.5 -67t66 -97t24 -119.5q0 -63 -24 -119.5t-66 -98.5t-97.5 -66t-120.5 -24q-63 0 -119 24t-98.5 66t-66.5 98.5t-24 119.5z" />
    <glyph glyph-name="ellipsis" unicode="&#x2026;" horiz-adv-x="1413" 
d="M94 37v232q0 15 11 25t25 10h218q15 0 26 -10t11 -25v-232q0 -15 -11 -26t-26 -11h-218q-14 0 -25 11t-11 26zM562 37v232q0 15 11 25t26 10h217q15 0 26 -10t11 -25v-232q0 -15 -10.5 -26t-26.5 -11h-217q-14 0 -25.5 11t-11.5 26zM1030 37v232q0 15 11 25t26 10h217
q15 0 26 -10t11 -25v-232q0 -15 -10.5 -26t-26.5 -11h-217q-14 0 -25.5 11t-11.5 26z" />
    <glyph glyph-name="uni202F" unicode="&#x202f;" horiz-adv-x="373" 
 />
    <glyph glyph-name="guilsinglleft" unicode="&#x2039;" horiz-adv-x="760" 
d="M65 527q0 11 4.5 24t13.5 24l295 341q11 13 23 17.5t32 4.5h223q26 0 26 -20q0 -5 -7 -17l-325 -374l325 -374q7 -11 7 -16q0 -21 -26 -21h-223q-21 0 -32.5 4.5t-22.5 18.5l-295 340q-9 11 -13.5 24t-4.5 24z" />
    <glyph glyph-name="guilsinglright" unicode="&#x203a;" horiz-adv-x="760" 
d="M79 137q0 5 7 16l325 374l-325 374q-7 11 -7 17q0 21 26 20h223q21 0 33 -4.5t22 -17.5l296 -341q9 -11 13.5 -24t4.5 -24q0 -10 -4.5 -23.5t-13.5 -24.5l-296 -340q-10 -13 -22.5 -18t-32.5 -5h-223q-26 0 -26 21z" />
    <glyph glyph-name="uni205F" unicode="&#x205f;" horiz-adv-x="466" 
 />
    <glyph glyph-name="Euro" unicode="&#x20ac;" 
d="M123 512v81q0 15 11.5 26t25.5 11h44v114h-44q-14 0 -25.5 11.5t-11.5 25.5v81q0 15 11.5 26t25.5 11h50q14 137 68 229t130.5 149.5t170.5 82t190 24.5q98 0 162 -11t94 -20q21 -6 31 -13t10 -28v-178q0 -37 -36 -37h-5q-53 4 -115 9.5t-140 5.5q-40 0 -79 -10.5
t-70 -34.5t-55 -65.5t-35 -102.5h392q32 0 32 -27q0 -5 -2 -10l-22 -81q-11 -37 -37 -37h-370v-114h336q11 0 18.5 -6.5t7.5 -15.5v-5l-27 -111q-2 -16 -26 -17h-302q11 -63 34 -105t55 -67t71 -35t79 -10q78 0 139.5 5.5t115.5 9.5h5q36 0 36 -37v-179q0 -21 -10.5 -28.5
t-30.5 -14.5q-30 -9 -94 -19.5t-162 -10.5q-99 0 -192.5 24.5t-170 82.5t-129 152.5t-67.5 231.5h-50q-14 0 -25.5 11.5t-11.5 25.5z" />
    <glyph glyph-name="trademark" unicode="&#x2122;" horiz-adv-x="1529" 
d="M46 1240v106q0 24 24 24h496q24 0 24 -24v-106q0 -24 -24 -23h-151v-568q0 -24 -24 -24h-143q-24 0 -23 24v568h-155q-24 0 -24 23zM649 644v654q0 35 10.5 46.5t40.5 15.5q100 9 186.5 13t163.5 4q98 0 174 -8.5t128.5 -38.5t79 -86.5t26.5 -154.5v-445q0 -18 -21 -19
h-143q-20 0 -20 19v445q0 39 -5.5 63t-20.5 37t-39.5 17.5t-63.5 4.5v-567q0 -18 -21 -19h-146q-18 0 -18 19v567q-37 0 -68.5 -2t-59.5 -6v-559q0 -18 -19 -19h-144q-21 0 -20 19z" />
    <glyph glyph-name="uniE000" unicode="&#xe000;" horiz-adv-x="1059" 
d="M0 0v1060h1060v-1060h-1060z" />
    <glyph glyph-name="uniFB01" unicode="&#xfb01;" horiz-adv-x="1293" 
d="M50 896v121q0 14 12 27t26 13h148v58q0 98 20 159.5t59 97t97 47t133 11.5q41 0 72.5 -3.5t73.5 -10.5q35 -6 35 -37v-144q0 -32 -38 -32h-90q-43 0 -52.5 -15t-9.5 -71v-60h152q14 0 25 -11.5t11 -25.5v-150q0 -14 -11 -25.5t-25 -11.5h-152v-796q0 -15 -11 -26t-25 -11
h-227q-15 0 -26 11t-11 26v796l-148 24q-14 3 -26 13.5t-12 25.5zM870 1213v171q0 15 13 26t28 11h234q14 0 26.5 -11t12.5 -26v-171q0 -14 -12.5 -25.5t-26.5 -11.5h-234q-15 0 -28 11t-13 26zM878 39v978q0 14 11.5 27t26.5 13h223q15 0 26 -12.5t11 -27.5v-978
q0 -15 -11 -27t-26 -12h-223q-14 0 -26 12t-12 27z" />
    <glyph glyph-name="uniFB02" unicode="&#xfb02;" horiz-adv-x="1286" 
d="M50 896v121q0 14 12 27t26 13h148v58q0 98 20 159.5t59 97t97 47t133 11.5q41 0 72.5 -3.5t73.5 -10.5q35 -6 35 -37v-144q0 -32 -38 -32h-90q-43 0 -52.5 -15t-9.5 -71v-60h152q14 0 25 -11.5t11 -25.5v-150q0 -14 -11 -25.5t-25 -11.5h-152v-796q0 -15 -11 -26t-25 -11
h-227q-15 0 -26 11t-11 26v796l-148 24q-14 3 -26 13.5t-12 25.5zM878 39v1338q0 14 11.5 25.5t26.5 11.5h225q15 0 25 -11.5t10 -25.5v-1338q0 -15 -10 -27t-25 -12h-225q-14 0 -26 12t-12 27z" />
  </font>
</defs>
</svg>
